<svg height="54" viewBox="0 0 178 54" width="178" xmlns="http://www.w3.org/2000/svg"><g fill="none" fill-rule="evenodd"><path d="m27.2.6c-14.6 0-26.4 11.8-26.4 26.4 0 14.5 11.8 26.4 26.4 26.4s26.4-11.8 26.4-26.4-11.9-26.4-26.4-26.4zm0 52.4c-14.4 0-26.1-11.7-26.1-26 0-14.4 11.7-26.1 26.1-26.1s26.1 11.7 26.1 26.1c0 14.3-11.7 26-26.1 26z" fill="#0d212b" fill-rule="nonzero"/><g fill="#23333e" transform="translate(56 4)"><g transform="translate(8)"><path d="m28.1 21.3c.1.7.2 1.2.5 1.6s.6.7.9 1c.3.2.7.4 1 .5.4.1.7.1.9.1.3 0 .6 0 .8-.1.3-.1.5-.2.7-.3.2-.2.4-.3.5-.6.1-.2.2-.5.2-.8 0-.4-.1-.8-.4-1.1s-.7-.6-1.1-.9-.9-.5-1.4-.8-1-.6-1.4-.9-.8-.7-1.1-1.1-.4-.9-.4-1.5c0-.4.1-.8.3-1.2s.4-.7.7-.9c.3-.3.6-.5 1-.6s.8-.2 1.2-.2c.3 0 .6 0 .8.1.3.1.5.1.7.2.1 0 .2.1.4.2.1.1.3.2.5.3s.3.1.5.2c.2 0 .4 0 .6-.2l-.1 3.1h-.3c0-.4-.1-.9-.3-1.3s-.4-.7-.6-1c-.3-.3-.6-.5-1-.7s-.8-.3-1.3-.3c-.2 0-.5 0-.7.1s-.4.2-.6.4-.3.3-.4.6c-.1.2-.2.4-.2.7 0 .4.2.7.5 1s.7.6 1.2.8c.5.3 1 .5 1.5.8s1 .5 1.5.9c.5.3.8.7 1.2 1.1.3.4.5.9.5 1.4 0 .4-.1.9-.3 1.2-.2.4-.4.7-.7 1s-.7.5-1.2.7c-.4.2-.9.3-1.5.3-.4 0-.7 0-1-.1s-.5-.1-.8-.2c-.1 0-.2-.1-.3-.2s-.2-.1-.4-.2c-.1-.1-.3-.1-.5-.2-.2 0-.5-.1-.8-.1v-2.9h.2z"/><path d="m39.3 18.7h2.3.9c.2 0 .5 0 .6-.1.2 0 .3-.1.4-.2s.1-.3.1-.5h.3v2.3h-.3c0-.3 0-.5-.1-.6s-.2-.2-.4-.3c-.2 0-.4-.1-.6-.1s-.5 0-.9 0h-2.3v3 .6c0 .2.1.4.2.6s.3.4.6.5.6.2 1.1.2h1.3c.4 0 .7 0 .9-.1.3-.1.5-.2.7-.4s.3-.4.5-.7c.1-.3.2-.6.4-1h.5l-.6 2.8h-7.1v-9.1c0-.4 0-.6 0-.9 0-.2-.1-.4-.2-.6-.1-.1-.3-.2-.5-.3s-.5-.1-.9-.1v-.3h8.6l.2 2.5h-.3c-.1-.4-.2-.8-.3-1s-.3-.4-.4-.5c-.2-.1-.4-.2-.7-.2s-.6-.1-1-.1h-2.9v4.6z"/><path d="m48.1 15.8c0-.4 0-.6 0-.9 0-.2-.1-.4-.2-.6-.1-.1-.3-.2-.5-.3s-.5-.1-.9-.1v-.3h5.2c.8 0 1.5.1 2 .2.6.2 1 .4 1.3.7s.6.6.8 1 .2.7.2 1.1c0 .6-.2 1.1-.6 1.6-.4.4-.9.7-1.4.9.3 0 .6.1.9.3.3.1.6.3.8.5s.4.5.6.8c.1.3.2.6.2 1 0 .2 0 .5-.1.9s-.3.7-.6 1-.7.6-1.3.8-1.3.3-2.3.3h-4.1zm1.6 8.3c.6.1 1.2.2 1.9.2.4 0 .7 0 1.1-.1s.7-.2 1-.4.5-.4.7-.7.3-.6.3-1.1-.1-.9-.3-1.2-.5-.6-.8-.8-.7-.3-1.1-.4-.8-.1-1.3-.1l-1.4.1zm3.3-5.5c.4-.2.6-.4.8-.6s.3-.5.4-.7c.1-.3.1-.5.1-.6 0-.4-.1-.8-.3-1.1s-.4-.5-.7-.7-.6-.3-1-.4-.8-.1-1.1-.1-.5.1-.7.2-.3.4-.5.8-.2.9-.2 1.6v2h1.9c.4-.2.9-.2 1.3-.4z" fill-rule="nonzero"/><path d="m68.3 21.3c.1.7.2 1.2.5 1.6s.6.7.9 1c.3.2.7.4 1 .5.4.1.7.1.9.1.3 0 .6 0 .8-.1.3-.1.5-.2.7-.3.2-.2.4-.3.5-.6.1-.2.2-.5.2-.8 0-.4-.1-.8-.4-1.1s-.7-.6-1.1-.9-.9-.5-1.4-.8-1-.6-1.4-.9-.8-.7-1.1-1.1-.4-.9-.4-1.5c0-.4.1-.8.3-1.2s.4-.7.7-.9c.3-.3.6-.5 1-.6s.8-.2 1.2-.2c.3 0 .6 0 .8.1.3.1.5.1.7.2.1 0 .2.1.4.2.1.1.3.2.4.3.2.1.3.1.5.2.2 0 .4 0 .6-.2l-.1 3.1h-.3c0-.4-.1-.9-.3-1.3s-.4-.7-.6-1c-.3-.3-.6-.5-1-.7s-.8-.3-1.3-.3c-.2 0-.5 0-.7.1s-.4.2-.6.4-.3.3-.4.6c-.1.2-.2.4-.2.7 0 .4.2.7.5 1s.7.6 1.2.8c.5.3 1 .5 1.5.8s1 .5 1.5.9c.5.3.8.7 1.2 1.1.3.4.5.9.5 1.4 0 .4-.1.9-.3 1.2-.2.4-.4.7-.7 1s-.7.5-1.2.7c-.4.2-.9.3-1.5.3-.4 0-.7 0-1-.1s-.5-.1-.8-.2c-.1 0-.2-.1-.3-.2s-.2-.1-.4-.2c-.1-.1-.3-.1-.5-.2-.2 0-.5-.1-.8-.1v-2.9h.3z"/><path d="m80.3 14.4h-1c-.9 0-1.6.1-1.9.4-.3.2-.6.8-.8 1.8h-.4l.1-2.9h9.6l.1 2.9h-.4c-.2-.9-.5-1.5-.8-1.8s-.9-.4-1.9-.4h-.9v10.5h-1.7z"/><path d="m88.2 13.7h1.6v11.2h-1.6z"/><path d="m12.9 6.6c0 .4-.1.9-.2 1.4s-.3.9-.6 1.2c-.3.4-.7.7-1.2.9s-1.1.3-1.9.3-1.5-.1-1.9-.3c-.5-.2-.9-.5-1.2-.8-.3-.4-.5-.8-.6-1.2-.1-.5-.2-.9-.2-1.4v-4.5c0-.3 0-.6 0-.8s-.1-.4-.2-.5-.2-.2-.4-.3-.5-.1-.8-.1v-.3h2.8v5.9.5.6c0 .2 0 .4.1.6 0 .2.1.3.1.5.1.3.2.5.4.6.2.2.3.3.5.4s.4.2.7.3c.2.1.5.1.7.1.5 0 1-.1 1.5-.3s.9-.5 1.2-.9c.1-.2.2-.4.3-.6s.1-.5.1-.7 0-.5.1-.7c0-.2 0-.5 0-.7v-5.6h.6v6.4z"/><path d="m26 .3h1.4v9.9h-1.4z"/><path d="m34.6 10.4h-.3l-3.5-8.3c-.1-.2-.2-.4-.3-.6s-.2-.4-.3-.5-.3-.3-.4-.4c-.2-.1-.4-.2-.6-.2v-.3h2.3l3.3 7.9 3.2-7.9h.7z"/><path d="m42.1 4.7h2 .8c.2 0 .4 0 .5-.1.1 0 .3-.1.3-.2.1-.1.1-.2.1-.4h.3v2.1h-.3c0-.2 0-.4-.1-.6-.1-.1-.2-.2-.3-.3-.1 0-.3-.1-.5-.1s-.5 0-.8 0h-2v2.7.5c0 .2.1.4.2.6s.3.3.5.4.6.2 1 .2h1.1c.3 0 .6 0 .8-.1l.6-.3c.2-.2.3-.4.4-.6s.2-.5.3-.9h.4l-.5 2.5h-6.3v-8c0-.3 0-.6 0-.8s-.1-.4-.2-.5-.2-.2-.4-.3-.5-.1-.8-.1v-.3h7.6l.1 2.2h-.3c-.1-.4-.2-.7-.2-.9-.1-.2-.2-.4-.4-.5s-.4-.2-.6-.2-.5 0-.9 0h-2.5v4z"/><path d="m49.6 2.2c0-.3 0-.6 0-.8s-.1-.4-.2-.5-.2-.2-.4-.3-.5-.1-.8-.1v-.3h4.3c.7 0 1.3.1 1.8.3.4.2.8.4 1 .7s.4.6.5.8c.1.3.1.6.1.8 0 .4-.1.7-.2 1s-.3.5-.5.7-.5.4-.8.5-.6.2-.9.3l1.9 2.7c.2.3.4.5.5.7.2.2.4.4.6.6s.4.3.7.4.5.2.9.2v.3h-2.7l-3.6-5.1c.3 0 .6 0 .9-.1s.6-.2.8-.4.4-.4.6-.7c.1-.3.2-.6.2-1.1 0-.3 0-.6-.1-.8-.1-.3-.2-.5-.4-.7s-.4-.3-.6-.4c-.3-.1-.5-.2-.8-.2-.1 0-.2 0-.4 0-.1 0-.3.1-.4.1-.1.1-.2.2-.3.4s-.1.5-.1.8v8h-1.4v-7.8z"/><path d="m59 7c.1.6.2 1.1.4 1.5s.5.7.8.9.6.3.9.4.6.1.8.1.5 0 .7-.1.4-.2.6-.3.3-.3.4-.5.2-.4.2-.7c0-.4-.1-.7-.4-1s-.6-.6-1-.8-.8-.5-1.3-.7c-.4-.2-.9-.5-1.3-.8s-.7-.6-1-1-.4-.8-.4-1.3c0-.4.1-.7.2-1.1.2-.3.4-.6.6-.8.3-.2.6-.4.9-.6.3-.1.7-.2 1.1-.2.3 0 .5 0 .7.1s.4.1.6.2c.1 0 .2.1.3.2s.3.2.4.2c.1.1.3.1.5.1s.3 0 .5-.1v2.7h-.3c0-.4-.1-.8-.2-1.1s-.3-.6-.6-.9c-.2-.3-.5-.5-.9-.6-.3-.2-.7-.2-1.1-.2-.2 0-.4 0-.6.1s-.4.2-.6.3-.3.3-.4.5-.2.4-.2.6c0 .4.1.7.4.9.3.3.6.5 1 .7s.9.5 1.3.7c.5.2.9.5 1.3.8s.7.6 1 1 .4.8.4 1.3c0 .4-.1.8-.2 1.1-.2.3-.4.7-.7.9-.3.3-.6.5-1 .6-.4.2-.8.2-1.3.2-.4 0-.6 0-.9-.1-.2-.1-.5-.1-.7-.2-.1 0-.2-.1-.3-.2s-.2-.1-.3-.2-.3-.1-.5-.2c-.2 0-.4-.1-.7-.1v-2.3z"/><path d="m67.6.3h1.4v9.9h-1.4z"/><path d="m72.5 2.2c0-.3 0-.6 0-.8s-.1-.4-.2-.5-.2-.2-.4-.3-.5-.1-.8-.1v-.3h3.8 1.1c.4 0 .7.1 1.1.1.4.1.7.1 1.1.2.3.1.7.3 1 .5s.6.5.9.8.5.6.6 1c.2.4.3.7.4 1.1s.1.8.1 1.2c0 .7-.1 1.3-.3 1.9s-.6 1.1-1 1.6-1 .8-1.7 1.1-1.5.4-2.4.4h-3.2v-7.9zm1.4 7.3c.3.1.5.1.8.1s.5.1.8.1c.6 0 1.2-.1 1.7-.4.5-.2.9-.6 1.2-1s.6-.9.7-1.4c.2-.5.3-1.1.3-1.7s-.1-1.2-.3-1.7-.4-1-.8-1.4c-.3-.4-.8-.7-1.3-.9s-1.1-.3-1.7-.3c-.3 0-.6.1-.7.2-.2.1-.4.3-.5.6-.2.3-.2.7-.2 1.2z" fill-rule="nonzero"/><path d="m91.9 2.2c0-.3 0-.6 0-.8s-.1-.4-.2-.5-.2-.2-.4-.3-.5-.1-.8-.1v-.3h3.8 1.1c.4 0 .7.1 1.1.1.4.1.7.1 1.1.2.3.1.7.3 1 .5s.6.5.9.8.5.6.6 1c.2.4.3.7.4 1.1s.1.8.1 1.2c0 .7-.1 1.3-.3 1.9s-.6 1.1-1 1.6-1 .8-1.7 1.1-1.5.4-2.4.4h-3.2v-7.9zm1.4 7.3c.3.1.5.1.8.1s.5.1.8.1c.6 0 1.2-.1 1.7-.4.5-.2.9-.6 1.2-1s.6-.9.7-1.4c.2-.5.3-1.1.3-1.7s-.1-1.2-.3-1.7-.4-1-.8-1.4c-.3-.4-.8-.7-1.3-.9s-1.1-.3-1.7-.3c-.3 0-.6.1-.8.2s-.4.3-.5.6c-.2.3-.2.7-.2 1.2v6.6z" fill-rule="nonzero"/><path d="m111.9 13.7h-.7v8.4l-.1-.1-6.7-8.3h-.8v2.4 8.8h.7v-8.8l7.3 9h.2.3v-9.5c0-.3 0-.6 0-.8s.1-.4.2-.5.2-.2.4-.3.3-.1.7-.1v-.3h-1.5z"/><path d="m22.6.2h-.6v7.4l-.1-.1-6-7.4h-.7v2.1 7.8h.6.1v-7.6-.2l6.5 8h.2.3v-8.4c0-.3 0-.5 0-.7s.1-.3.1-.5c.1-.1.2-.2.4-.2s.3-.1.6-.1v-.2h-1.4z"/><path d="m86.4 0h-.3l-4.5 10.2h2.5v-.3c-.1 0-.3 0-.4 0s-.3-.1-.4-.1-.2-.1-.3-.2-.1-.2-.1-.3 0-.3.1-.5.1-.3.2-.4l.1-.1.6-1.4h3.9l1.3 3.3h1.3zm-2.3 6.3 1.7-4 1.7 4z" fill-rule="nonzero"/><path d="m5.7 13.4h-.3l-5 11.5h2.8v-.3c-.2 0-.3 0-.5 0s-.3-.1-.4-.1c-.1-.1-.2-.1-.3-.2s-.1-.2-.1-.4 0-.4.1-.6.1-.3.2-.4l.1-.1.6-1.5h4.4l1.5 3.8h1.5zm-2.6 7.1 2-4.5 1.9 4.5z" fill-rule="nonzero"/><path d="m20.6 13.7h-.7v8.4l-.1-.1-6.8-8.3h-.8v2.4 8.8h.7v-8.6-.2l7.3 9h.2.3v-9.5c0-.3 0-.6 0-.8s.1-.4.2-.5.2-.2.4-.3.3-.1.7-.1v-.3h-1.4z"/></g><path d="m70.8 13.4h-.3l-5 11.5h2.8v-.3c-.2 0-.3 0-.5-.1-.2 0-.3-.1-.4-.1-.1-.1-.2-.1-.3-.2s-.1-.2-.1-.4 0-.3.1-.6c.1-.2.1-.3.2-.4l.1-.1.6-1.5h4.4l1.5 3.8h1.5zm-2.6 7.1 2-4.5 1.9 4.5z" fill-rule="nonzero"/><path d="m.6 21.3c.1.7.2 1.2.5 1.6s.6.7.9 1c.3.2.7.4 1 .5.4.1.7.1.9.1.3 0 .6 0 .8-.1.3-.1.5-.2.7-.3.2-.2.4-.3.5-.6.1-.2.2-.5.2-.8 0-.4-.1-.8-.4-1.1s-.7-.6-1.1-.9-.9-.5-1.4-.8-1-.6-1.4-.9-.8-.7-1.1-1.1-.4-.9-.4-1.5c0-.4.1-.8.3-1.2s.4-.7.7-.9c.3-.3.6-.5 1-.6s.8-.2 1.2-.2c.3 0 .6 0 .8.1.3.1.5.1.7.2.1 0 .2.1.4.2.1.1.3.2.4.3.2.1.3.1.5.2.2 0 .4 0 .6-.2v3.1h-.3c0-.4-.1-.9-.3-1.3s-.4-.7-.6-1c-.3-.3-.6-.5-1-.7s-.8-.3-1.3-.3c-.2 0-.5 0-.7.1s-.4.2-.6.4-.3.3-.4.6c-.1.2-.2.4-.2.7 0 .4.2.7.5 1s.7.6 1.2.8c.5.3 1 .5 1.5.8s1 .5 1.5.9c.5.3.8.7 1.2 1.1.3.4.5.9.5 1.4 0 .4-.1.9-.3 1.2-.2.4-.4.7-.7 1s-.7.5-1.2.7c-.4.2-.9.3-1.5.3-.4 0-.7 0-1-.1s-.5-.1-.8-.2c-.1 0-.2-.1-.3-.2s-.2-.1-.4-.2c-.1-.1-.3-.1-.5-.2-.2 0-.5-.1-.8-.1v-2.9h.2z"/><path d="m105.2 13.4h-.3l-5 11.5h2.8v-.3c-.2 0-.3 0-.5 0s-.3-.1-.4-.1c-.1-.1-.2-.1-.3-.2s-.1-.2-.1-.4 0-.3.1-.6c.1-.2.1-.3.2-.4l.1-.1.6-1.5h4.3l1.5 3.8h1.5zm-2.6 7.1 1.9-4.5 1.9 4.5z" fill-rule="nonzero"/></g><g fill="#202731"><g transform="translate(56 35)"><path d="m.3 2.3h2.5v.4h-2v1.8h1.9v.4h-1.9v2.2h-.5z"/><path d="m6.7 2.3h.5l2.1 4.9h-.5l-.7-1.6h-2.3l-.7 1.6h-.5zm-.7 2.8h1.9l-.9-2.3z" fill-rule="nonzero"/><path d="m16.2 5.9c-.5 1-1.5 1.4-2.2 1.4-1.4 0-2.5-1.1-2.5-2.5s1.1-2.5 2.5-2.5c1.2 0 2 .9 2.2 1.3h-.5c-.5-.8-1.4-.9-1.7-.9-1.1 0-2 1-2 2.1s1 2.1 2 2.1c.2 0 1 0 1.7-.9h.5z"/><path d="m19.4 2.3v3c0 .4.1.7.2.9.3.5.8.6 1 .6s.7-.1 1-.6c.1-.2.2-.5.2-.9v-3h.5v3c0 .4-.1.8-.2 1-.3.7-1 .9-1.5.9s-1.1-.2-1.5-.9c-.1-.3-.2-.6-.2-1v-3z"/><path d="m25.3 2.3h.5v4.4h2v.4h-2.5z"/><path d="m30.6 2.7h-1.1v-.4h2.7v.4h-1.1v4.4h-.5z"/><g fill-rule="nonzero"><path d="m36.1 2.3h.5l2.1 4.9h-.5l-.7-1.6h-2.3l-.7 1.6h-.5zm-.7 2.8h1.9l-.9-2.2z"/><path d="m41.2 2.3h1.4c.6 0 1.2.1 1.6.4.9.5 1.1 1.5 1.1 2s-.2 1.4-1.1 2c-.4.3-1 .4-1.6.4h-1.4zm.5 4.4h.7c.4 0 1.1 0 1.7-.4.3-.2.8-.8.8-1.6 0-.6-.3-1.2-.8-1.6-.4-.3-.9-.4-1.6-.4h-.7v4z"/><path d="m51.9 2.3h1.4c.6 0 1.2.1 1.6.4.9.5 1.1 1.5 1.1 2s-.2 1.4-1.1 2c-.4.3-1 .4-1.6.4h-1.4zm.5 4.4h.7c.4 0 1.1 0 1.7-.4.3-.2.8-.8.8-1.6 0-.6-.3-1.2-.8-1.6-.4-.3-.9-.4-1.6-.4h-.7v4z"/></g><path d="m58.7 2.3h2.7v.4h-2.2v1.7h2.1v.4h-2.1v1.8h2.2v.4h-2.7z"/><path d="m68.1 2.3h.5v4.9h-.5z"/><path d="m71.5 2.3h.7l2.7 4v-4h.5v4.9h-.5l-2.9-4.3v4.3h-.5z"/><path d="m83.3 4.9c-.1 1.4-1.4 2.3-2.6 2.3-1.5 0-2.6-1.2-2.6-2.5s1-2.5 2.6-2.5c1.3 0 2.1.9 2.3 1.4h-.6c-.3-.5-.9-.9-1.7-.9-1.2 0-2.1 1-2.1 2.1s.9 2.1 2.1 2.1c1 0 1.8-.8 2-1.4h-2.7v-.4h3.3z"/><path d="m86.1 2.3h2.7v.4h-2.2v1.7h2.1v.4h-2.1v1.8h2.2v.4h-2.7z"/><path d="m91.6 2.3h.7l2.7 4v-4h.5v4.9h-.5l-2.9-4.3v4.3h-.5z"/><path d="m98.4 2.3h.5v4.9h-.5z"/><path d="m101.9 2.3h2.7v.4h-2.2v1.7h2.1v.4h-2.1v1.8h2.2v.4h-2.7z"/><path d="m107.4 2.3h1.2c.6 0 1 .1 1.2.2.5.3.9.8.9 1.4 0 .7-.5 1.4-1.4 1.5l1.4 1.8h-.7l-1.6-2.2c.6 0 .8 0 1-.1.5-.2.8-.6.8-1s-.2-.8-.5-.9c-.3-.2-.5-.2-.9-.2h-.8v4.4h-.5v-4.9z"/><path d="m114.5.9.2.4-1.3.7-.2-.4zm-1.1 1.4h.5v4.9h-.5z" fill-rule="nonzero"/><path d="m118.5 2.3h.5l2.1 4.9h-.5l-.7-1.6h-2.3l-.7 1.6h-.5zm-.7 2.8h1.9l-.9-2.2z" fill-rule="nonzero"/><path d="m27.1 12.4-1.7-3.2h.5l1.4 2.7 1.4-2.7h.5l-1.7 3.2v1.6h-.5v-1.6z"/><path d="m36 9.6h-1.1v-.4h2.7v.4h-1.1v4.4h-.5z"/><path d="m40.1 9.1h2.7v.4h-2.2v1.7h2.1v.4h-2.1v1.8h2.2v.6h-2.7z"/><path d="m50.2 12.7c-.5 1-1.5 1.4-2.2 1.4-1.4 0-2.5-1.1-2.5-2.5s1.1-2.5 2.5-2.5c1.2 0 2 .9 2.2 1.3h-.5c-.5-.8-1.4-.9-1.7-.9-1.1 0-2 1-2 2.1s1 2.1 2 2.1c.2 0 1 0 1.7-.9h.5z"/><path d="m52.9 9.1h.7l2.7 4v-4h.5v4.9h-.5l-2.9-4.3v4.3h-.5z"/><path d="m62.1 9c1.4 0 2.6 1.1 2.6 2.5s-1.2 2.5-2.6 2.5-2.6-1.1-2.6-2.5c.1-1.5 1.4-2.5 2.6-2.5zm0 4.6c1.1 0 2.1-.9 2.1-2.1 0-1.1-.9-2.1-2.1-2.1-1.1 0-2.1.9-2.1 2.1.1 1.2 1 2.1 2.1 2.1z" fill-rule="nonzero"/><path d="m67.5 9.1h.5v4.4h2v.5h-2.5z"/><path d="m74.8 9c1.4 0 2.6 1.1 2.6 2.5s-1.2 2.5-2.6 2.5-2.6-1.1-2.6-2.5c.1-1.5 1.3-2.5 2.6-2.5zm0 4.6c1.1 0 2.1-.9 2.1-2.1 0-1.1-.9-2.1-2.1-2.1-1.1 0-2.1.9-2.1 2.1.1 1.2 1 2.1 2.1 2.1z" fill-rule="nonzero"/><path d="m85.1 11.7c-.1 1.4-1.4 2.3-2.6 2.3-1.5 0-2.6-1.2-2.6-2.5s1-2.5 2.6-2.5c1.3 0 2.1.9 2.3 1.4h-.6c-.3-.5-.9-.9-1.7-.9-1.2 0-2.1 1-2.1 2.1s.9 2.1 2.1 2.1c1 0 1.8-.8 2-1.4h-2.7v-.4h3.3z"/><path d="m89 7.8.2.4-1.3.7-.2-.4zm-1.1 1.3h.5v4.9h-.5z" fill-rule="nonzero"/><path d="m93 9.1h.5l2.1 4.9h-.5l-.7-1.6h-2.3l-.7 1.6h-.5zm-.7 2.8h1.9l-.9-2.2z" fill-rule="nonzero"/></g><path d="m56.2 33.2h121.4v1h-121.4z"/></g><g transform="translate(1)"><g fill="#23333e"><g><g transform="translate(18 37)"><path d="m1.8 0h1.3l-.7 2z"/><path d="m3.1 4.1h-1.3l.6-2.1z"/><path d="m.4 2.7v-1.3l2 .7z"/><path d="m4.4 1.4v1.3l-2-.6z"/></g><g transform="translate(24 36)"><path d="m1.6.9h1.3l-.6 2.1z"/><path d="m2.9 5h-1.3l.7-2z"/><path d="m.2 3.6v-1.3l2.1.7z"/><path d="m4.3 2.3v1.3l-2-.6z"/></g><g transform="translate(30 37)"><path d="m1.4 0h1.3l-.6 2.1z"/><path d="m2.7 4.1h-1.3l.7-2z"/><path d="m0 2.7v-1.3l2.1.7z"/><path d="m4.1 1.4v1.3l-2-.6z"/></g></g><g transform="translate(13 11)"><path d="m13.1 1.6s.1.1.1.2c0 0 .1.1.1.1v.1.1.1s-.1.1-.1.1c0 .1 0 .1-.1.2 0 .1-.1.2-.2.2s-.2 0-.2-.1h-.1c-.1-.1-.2-.1-.2-.3 0-.1-.1-.1-.1-.2s0-.1.1-.1c0-.1 0-.1.1-.1.1-.1.1-.2.2-.2 0 0 0-.1.1-.1h.1.1.1c-.1 0 0 0 0 0z"/><path d="m12.1 2.4c.2.2.3.5.7.5 0 0 0 0-.1.1-.1 0-.2.1-.3.1h-.1c-.1 0-.1 0-.2-.1 0-.1-.1-.1 0-.2s.1.1.1.1c0-.1-.1-.1-.1-.2-.1-.1 0-.2 0-.3z"/><path d="m16.9 5c.1 0 .1 0 .1.1.1 0 .1.1.1.2s-.1.1-.1.1 0 .1-.1.1c0 0 0 0-.1.1v.1s-.1.1-.1.1h-.1c-.1 0-.1 0-.1 0s-.1 0-.1-.1c0 0-.1 0-.1-.1 0 0 0 0 0-.1 0 0-.1-.1-.1-.1s-.1-.1-.1-.1v-.1c0-.1 0-.1 0-.1v-.1s.1-.1.1-.1h.1.1.1.1c.3 0 .3 0 .3.1z"/><path d="m4.9 10.1c0 .1.1.1.1.2 0 .2-.1.2-.2.2s-.1.1-.2.1-.3.1-.4.1c-.2 0-.3 0-.4-.1 0 0-.1-.1-.1-.1v-.1-.1c0-.1 0-.1 0-.2s0-.1 0-.2v-.1c0-.1 0-.1 0-.2s.1-.1.1-.1c0-.1 0-.1.1-.1h.1s.1-.1.1-.1c.1-.1.2 0 .2 0h.1s0 .1.1.1h.1v.1c.1.1.2.1.2.2v.1s0 0 .1.1.1.1 0 .2z"/><path d="m22.1 14.1h.2v.1h.1.1s.1 0 .1.1v.1c.1 0 .2 0 .2.1v.2s.1.1.1.1v.1c0 .1.1.1.1.2v.1s-.1.1-.1.1c0 .1-.1.2-.2.2 0 0-.1.1-.1.1-.1 0-.1 0-.2 0 0 0-.1.1-.1.1h-.1s0 0-.1-.1c0 0 0 0-.1 0s-.1 0-.1 0h-.1c-.1 0-.2 0-.2-.1 0-.3.1-.5.1-.8.1-.2.1-.3.2-.4 0 0 .1-.1.1-.1-.1-.2 0-.2.1-.1z"/><path d="m17 6c.1 0 .1 0 0 0z"/><path d="m4.4 11.3s.1 0 0 0z"/><path d="m25.6 11.9h.2.2c.1 0 .1.1.1.1h.1c.3 0 .5-.2.4-.5v-.1c0-.1-.1-.1-.2-.1h-.1s-.1 0-.2 0c0 0 0 0-.1 0s-.1.1-.2.2v.1.1c-.2 0-.3 0-.5.1h-.1s-.2-.1-.2-.1v-.1c0-.1.1-.2.1-.3 0 0 0-.1.1-.1h.1.1s0 0 .1-.1.1-.1.1-.2 0-.2-.1-.3-.2-.1-.4-.1h-.1s-.1.1-.1.1v.3s.1.1.1.1v.2s0 .1-.1.1-.1-.1-.1-.1-.1-.1-.1-.1-.1-.1-.1-.1c0-.1-.1-.1-.1-.2s0-.2.1-.3c0 0 .1-.1.1-.1.1-.1.1-.3 0-.4 0 0-.1-.1-.1-.1-.1 0-.2-.1-.3 0-.1 0-.1.1-.2.1 0 0 0 .1-.1.1-.1.2 0 .4.2.5h.1c0 .1 0 .2.1.3.1.2.2.4.3.6 0 0 .1.1.1.1-.1 0-.2-.1-.3-.1h-.1v-.1-.1s-.1-.1-.1-.2v-.1c0-.1 0-.1 0-.2-.1-.1-.3-.2-.4-.1 0 0-.1.1-.1.1v.2c0 .1.1.1.2.1h.2v.1.1c-.1 0-.1 0-.2 0-.2 0-.4-.1-.6-.1h-.1v-.1c.1-.1.2-.2.2-.3s0-.2-.1-.2c0 0-.1 0-.1-.1-.1 0-.1 0-.2 0s-.1 0-.2.1c.2.2.1.3.1.4s.1.2.2.3c0 0 .1 0 .1.1h-.1c-.2 0-.3.1-.4.1-.2.1-.3.1-.5.2-.1 0-.1 0-.2.1-.1 0-.1.1-.2.1v-.1c0-.1 0-.2 0-.3v-.1h-.1c-.1 0-.1 0-.1 0-.1.7-.4 1.2-.8 1.7-.1.1-.1.1-.2.2 0 0-.1.1-.1.1v.1s0 0-.1 0c0 0 0 0-.1.1 0 0 0 0-.1 0 0 0-.1.1-.1.1s0 0-.1 0-.2.1-.2.1-.1 0-.1.1 0 0-.1 0h-.1c-.1 0-.1.1-.2.1h-.1s0 0-.1 0c-.1 0-.1.1-.2.1 0 0 0 0-.1 0s-.3.1-.4.1c-.2.1-.4.1-.6.1 0 0 0 0-.1 0 0 0 0 0-.1 0h-.1-.1-.1v-.1-.1c0-.1 0-.1 0-.2 0 0 0 0 0-.1 0 0 0 0 0-.1s0-.1 0-.2 0-.2 0-.3v-.1c0-.1 0-.2 0-.3s0-.1 0-.2 0-.1 0-.2 0-.2.1-.3c0-.1 0-.1 0-.1 0-.1 0-.2.1-.3v-.1s0 0 0-.1.1-.2.1-.2 0-.1.1-.2c0 0 0 0 .1-.1 0 0 0-.1.1-.1h.1s.1.1.2.1c0 0 .1.1.1.2v.1c0 .1 0 .1-.1.2 0 .1 0 .1-.1.2v.1s0 .1-.1.1-.1.1-.1.1 0 0-.1.1-.1.1-.1.1-.1.1-.1.1 0 .1-.1.1v.1.2.1.1s.1 0 .1.1c0 0 0 0 .1.1s.3.1.4 0h.1.1c.1-.1.1-.2.2-.3 0 0 0-.1 0-.2 0 0 0-.1-.1-.1v-.1s0 0-.1-.1v-.1s-.1-.1-.1-.1v-.1c0-.1 0-.1.1-.2v-.1c.1 0 .1.1.2.1s.1.1.2.1c0 0 .1.1.1.1 0 .1.1.1.1.2v.1.1.1.1.1c0 .1.1.2.1.2.1.1.1.1.2.1h.1.2c.2 0 .2-.1.3-.2 0-.1.1-.2.1-.3s-.1-.2-.1-.3c-.1-.1-.1-.1-.2-.1s-.2-.1-.3-.1c0 0-.1 0-.2 0 0 0-.1-.1-.1-.1s.1 0 .1-.1c.1 0 .1 0 .2-.1h.1.1.2.1.3c.1 0 .1 0 .1.1 0 0 .1.1.1.1.1 0 .1.1.2.1h.1c.1 0 .2.1.3 0 .1 0 .1-.1.2-.2 0-.1.1-.2.1-.2 0-.1 0-.1 0-.1 0-.1 0-.2 0-.2-.1-.1-.2-.2-.4-.2h-.1-.1c-.1 0-.1.1-.2.1s-.1 0-.2.1c0 0-.1.1-.1.1-.1 0-.1 0-.2 0h-.1-.1s0 0-.1 0h-.1-.1s0 0-.1 0c0 0 0 0-.1 0h-.1-.1-.1s-.1 0-.1.1h-.1-.1s-.1-.1-.1-.1v-.1-.1s0 0 0-.1c0 0 0 0 0-.1-.1-.1-.1-.2-.3-.3h-.1v-.1h.1s.1-.1.1-.1c.1-.1.1-.1.2-.2 0 0 .1-.1.1-.1h.1c.2.1.4.2.5.3 0 .1.1.2.1.3s.1.1.1.1h.3.1.1c.1 0 .2-.1.2-.2s.1-.2.1-.2v-.1c0-.1 0-.1-.1-.2s-.1-.1-.2-.1-.2-.1-.3-.1-.2.1-.3.1c0 0-.1.1-.1.1s-.1.1-.1.1h-.1c-.1 0-.1-.1-.2-.1 0 0-.1-.1-.1-.1s.1-.1.1-.1.1 0 .1-.1c0 0 .1 0 .1-.1.1 0 .1-.1.1-.1.1 0 .1 0 .2-.1h.1c.1.1.2.1.4.2.1 0 .2.1.3.1h.1v.1.3.1c.1.1.2.2.3.2h.1.1.1c.1 0 .2-.1.2-.1s.1-.1.1-.2c.1-.3 0-.5-.2-.7 0 0-.1 0-.2-.1-.1 0-.1 0-.2 0s-.2 0-.2 0 0 0-.1 0c0 0-.1.1-.1.1h-.1c-.1 0-.1 0-.2 0h-.1-.1c-.1 0-.1 0-.2-.1 0 0-.1 0-.1-.1 0 0 .1 0 .1-.1h.1.1.1.1.2.1.1.3c.1 0 .1 0 .1-.1.1 0 .1-.1.1-.2s0-.1 0-.2-.1-.2-.1-.2c0-.1-.1-.1-.2-.1s-.2.1-.3.1c0 0-.1.1-.1.1h-.1s0 .1-.1.1h-.1-.1c-.1 0-.1.1-.2.1 0-.1 0-.1 0-.2s0-.1.1-.2c0 0 0-.1.1-.2 0 0 .1-.1.1-.1h.1.1c.1 0 .1 0 .1-.1h.1s0-.1.1-.1c.1-.2.1-.4 0-.5 0-.1-.1-.1-.1-.1s0 0-.1 0-.2 0-.3 0-.1.1-.2.1c0 0-.1.1-.1.1 0 .1-.1.2-.1.3s.1.2.1.3c0 0 .1 0 .1.1.1 0 0 .1 0 .1-.1.1-.1.2-.1.3s-.1.1-.1.2 0 .2-.1.2c0 0-.1 0-.1.1h-.1s0 0 0-.1c0 0 0 0-.1-.1 0 0-.1-.1-.1-.1-.1-.1-.1-.2-.2-.3 0-.1 0-.1.1-.1.1-.1.2-.2.1-.4 0-.1-.1-.2-.1-.3-.1-.1-.3-.1-.4-.1h-.1-.1s-.1.1-.1.1c-.1.1-.1.2-.1.3s0 .1.1.1v.1h.1s0 0 .1.1c0 0 .1 0 .2.1h.2c.1 0 .1.1.2.1 0 0 .1.1.1.2 0 0 0 0-.1 0s-.2 0-.3 0-.3 0-.4 0-.1 0-.2 0-.1-.1-.2-.2c0 0-.1-.1-.1-.1s0 0 0-.1c0 0 0 0 0-.1s0-.2-.1-.3c0 0-.1 0-.1-.1 0 0 0 0-.1 0h-.1c-.1 0-.2 0-.2 0-.1 1-.1 1.1-.2 1.2v.1.2c0 .2.1.2.2.3s.2.1.3.1h.2s.1 0 .1-.1c0 0 .1-.1.1-.1h.1c.1.1.2.1.3.1h.2.2.2.2.1.1s.1.2.1.2 0 0-.1.1c-.1 0-.1.1-.2.1 0 0 0 0-.1.1h-.1s0 0-.1.1h-.1s0 0-.1.1c0 0-.1.1-.1.1s-.1.1-.1.1c-.1 0-.1-.2-.1-.2 0-.1 0-.2-.1-.2-.1-.1-.2-.1-.3-.1 0 0-.1 0-.1.1 0 0-.1.1-.1.1v.2.1c.1.1.1.1.2.1s.2 0 .3-.1h.1c.1 0 .1 0 .1.1 0 0 0 0-.1.1-.2.1-.3.2-.3.2 0 .1-.1.1-.1.1s0 .1-.1.1c0 0 0 .1-.1.1-.1-.1-.1-.1-.1-.2s-.1-.2-.1-.3c0 0-.1-.1-.1-.1-.1 0-.3 0-.4 0 0 0-.1.1-.1.1-.1.1-.1.1-.1.2v.2c0 .1 0 .1.1.2v.1c.1.1.1.1.2.1h.2.1.1s.1-.1.1-.1h.1s-.1.1-.1.1c-.1.1-.1.2-.1.2 0 .1-.1.1-.1.2v.1s0 .1-.1.1c0 0 0 .1-.1.1 0 0 0 .1-.1.1 0 .1-.1.2-.1.3-.1.2-.1.3-.2.4 0 .1-.1.2-.1.3v.2s-.1 0-.2 0c0 0-.1 0-.1-.1-.1 0-.1-.1-.1-.2s0-.1 0-.1v-.1-.1c0-.2 0-.5 0-.7 0-.1 0-.2 0-.2 0-.1 0-.1.1-.2 0-.1 0-.2.1-.2v-.1c0-.1 0-.2 0-.3 0 0 0-.1-.1-.1 0 0 0 0-.1 0 0 0 0 0-.1 0 0 0 0 0-.1 0 0 0 0 0-.1 0s-.1 0-.2 0h-.1s-.1 0-.1.1-.1.1-.1.1-.1.1-.1.1c0 .2 0 .3.1.3 0 0 .1.1.1.1.1.1.2.1.3.2v.1c0 .1.1.2.1.4v.1.1.1.1.3.1c-.1 0-.1 0-.2-.1 0-.1-.1-.2-.1-.3s-.1-.1-.1-.1c-.1-.1-.2-.2-.3-.2s-.3.1-.4.1c0 0-.1.1-.1.1s0 0-.1.1v.3.1s0 .1.1.1c0 0 0 .1.1.1.1.1.2.1.3.1h.3.1.1.1.1s.1 0 .1.1c0 0 .1.1.1.1.1.1.1.1.2.2-.1.1-.2.1-.2.2 0 0-.1.1-.1.1h-.1-.1c-.1 0-.3-.1-.4-.1s-.2.1-.3.2-.1.2-.1.2c0 .2 0 .3.1.4 0 0 .1.1.1.1.1 0 .1.1.1.1h.2.1c.1-.1.2-.2.3-.2 0-.1.1-.1.1-.2 0 0 0-.1.1-.1 0 0 0-.1.1-.1h.1s.1-.1.1-.1c.1 0 .1-.1.2-.1v.2c0 .2-.1.4-.1.5v.1s-.1 0-.2.1c-.1 0-.2 0-.2 0-.3.1-.6.2-.8.3-.1 0-.1 0-.1 0-.1 0-.1 0-.2.1h-.1c-.1 0-.2.1-.2.1h-.1s0 0-.1 0c-.1-.6-.1-1.3-.1-1.9 0-.3 0-.5 0-.8 0-.1 0-.3 0-.4s0-.3 0-.4 0-.2 0-.3c0-.2 0-.4 0-.6 0-.1 0-.1 0-.2 0 0 0-.1.1-.1 0 0 .1-.1.1-.1.1-.2.3-.3.4-.5.1-.1.2-.2.3-.4l.3-.3c.2-.2.5-.4.7-.6.1-.1.2-.2.4-.3.1 0 .1-.1.2-.1.1-.1.1-.2.2-.2h.3.1.1.2.2c.6-.2 1.2-.4 1.6-.7.1 0 .1-.1.2-.1h.1c0 .1-.1.2-.1.3s0 .2.1.2c.1.1.2.1.3.1h.1c.2 0 .3-.3.2-.5 0 0-.1-.1-.1-.1-.1-.1-.3 0-.4-.1.1-.1.2-.2.3-.3s.1-.1.2-.2.1-.1.1-.2c0 0 0 .1.1.1v.1h-.1c-.1 0-.2.1-.1.3 0 .1.1.2.2.2.2 0 .3-.1.3-.3 0-.1-.1-.2-.1-.2s-.1 0-.1-.1c0 0 0 0 0-.1s-.1-.2-.1-.3c.1-.1.2-.3.2-.4h.1v.3c0 .2 0 .4.1.5 0 .1.1.2.1.2-.1.1-.1.2-.1.3s.1.3.3.3h.3c.1-.1.2-.2.2-.3 0-.2-.1-.3-.1-.3-.1-.1-.1-.1-.2-.1s-.1 0-.1 0 0 0-.1 0-.1-.1-.2-.1c0-.1-.1-.2-.1-.4 0-.1 0-.1 0-.2s0-.1 0-.2c.1 0 .1 0 .2.1 0 0 .1.1.1.1v.1c0 .2.2.4.4.3h.1c.1 0 .2-.1.2-.2s0-.2 0-.2c0-.1-.2-.3-.4-.3-.1 0-.2.1-.2.1s0 .1-.1.1c-.1-.1-.3-.2-.4-.3h-.1s.1-.2.1-.2.1 0 .1-.1c.1 0 .2-.1.3-.2 0 0 .1-.1.1-.1s0 .1.1.1c.1.1.4.2.5.1.1-.1.1-.2.1-.3 0-.2-.2-.4-.4-.3-.1 0-.2 0-.2.1-.1.1-.1.2-.2.3s-.2.1-.3.2h-.1c0-.1 0-.1.1-.2 0-.1 0-.1.1-.2 0 0 .1-.1.1-.1.1-.1.1-.2.1-.3 0-.2-.2-.3-.3-.3h-.1c-.2.1-.1.4-.1.6v.1.2c0 .1-.1.3-.1.4v.1s0 0-.1-.1-.2-.4-.2-.6c.1-.1.1-.2.1-.3 0-.2-.1-.3-.3-.4-.2 0-.3 0-.4.1-.1 0-.1.1-.1.2-.1.2 0 .4.1.5s.2.2.4.1c0 .1.1.1.1.2.1.1.2.3.3.4 0 0 .1 0 .1.1v.1c-.1.1-.1.2-.2.4 0 0-.1.1-.1.1s-.1-.1-.1-.1-.1-.1-.1-.1c-.1-.1 0-.1.1-.2 0 0 .1-.1.1-.2s0-.2-.1-.3c-.1-.1-.3-.2-.5-.1-.1.1-.2.2-.2.3v.2c0 .1.1.2.3.2h.1c.1 0 .2.1.2.2s.1.2.1.3c-.1.1-.1.2-.2.2 0 0-.1 0-.1.1 0 0-.1-.1-.1-.1-.1 0-.1-.1-.2-.1s-.2 0-.2-.1c-.1 0-.2-.1-.2-.2v-.1c.1-.2.1-.5.2-.8 0-.1 0-.1 0-.1s0-.1.1-.1c0 0 0-.1.1-.1 0-.1.1-.2.1-.3s0-.2-.1-.3c-.2-.1-.4 0-.6.1-.1.1-.1.1-.1.2s.1.1.1.2c0 0 .1.1.1.1.1.1.1.2.1.3 0 .2 0 .4-.1.6 0 0 0 .1-.1.1 0 0-.1-.1-.1-.1v-.1c0-.1 0-.2-.1-.2v-.1c-.1-.1-.3-.1-.4-.1s-.2.1-.2.2-.1.1-.1.2c0 .2.1.3.3.3h.2.1.1.1c.1 0 .1.1.1.1 0 .1.1.1.1.2 0 0-.1 0-.1.1 0 0-.1.1-.1.1s-.1 0-.1-.1c0 0-.1 0-.1-.1-.1 0-.2-.1-.3-.1s-.2.2-.3.3v.1c0 .1.1.2.1.2.1.1.2.1.3.1s.1 0 .2-.1c.1 0 .1-.1.1-.1.1-.1.2-.2.3-.3.1 0 .1-.1.2-.1.2 0 .3 0 .4.2 0 .1-.1.1-.2.1-.4.3-.9.5-1.5.5-.1 0-.3 0-.4 0h-.1v-.1c.1-.1.1-.2.2-.4 0-.1.1-.2.1-.3s.1-.3.1-.4c0-.2 0-.3 0-.5 0 0 0 0 0-.1v-.1c0-.1-.1-.2-.1-.4 0 0 0 0 0-.1 0 0 0 0-.1.1 0 0-.1.1-.1.1s0 0-.1.1v.1c0 .1.1.2.1.3 0 0-.1 0-.1-.1 0 0-.1-.1-.1-.1v-.1-.1c0-.1 0-.2 0-.2 0 .1-.1.2-.2.3 0 0 0 .1-.1.1-.1.1-.2.1-.2.2h-.1-.1.2.2c.1 0 .1-.1.1-.1s-.1.1-.1.1h.1s.1 0 .2.1c.1 0 .1.1.2.1v.1.1.1c-.1.3-.2.5-.3.7 0 0 0 .1-.1.1-.2.2-.3.4-.5.6 0 0-.1.1-.1.1s0 0-.1.1c-.1 0-.1.1-.1.1-.2.1-.3.2-.5.4-.1 0-.1.1-.2.1s-.1.1-.2.1c0 0-.1 0-.1.1-.1 0-.2.1-.2.1s-.1.1-.1.1c-.1-.3-.1-.9 0-1.2 0 0 0-.1.1-.1 0-.1.1-.1.1-.1s0-.1.1-.1c0 0 .1-.1.1-.1h.1c.1 0 .2.1.2.1.1.1.1.2.2.2h.2c.1 0 .2-.1.2-.2s0-.3-.1-.3c-.1-.1-.3 0-.3 0s-.1.1-.1.1c-.1 0-.2-.1-.2-.1s0 0 0-.1c.1-.1.2-.2.4-.3.1.1.1.1.2.1h.3c0 .1 0 .2.1.3 0 .1.1.1.2.1s.2-.1.2-.1c.1-.1.1-.2.1-.3s-.1-.1-.1-.2c-.1 0-.2-.1-.3 0 0 0-.1 0-.1.1 0 0 0 0-.1 0h-.1-.1c-.1 0-.2 0-.2-.1 0 0 .1 0 .1-.1.1 0 .2-.1.3-.1.1.1.4 0 .5-.1 0-.1 0-.2-.1-.2 0 0-.1 0-.1-.1-.2 0-.3.2-.4.2 0 0-.1 0-.1.1 0 0-.1.1-.1.1 0-.1.1-.2.1-.3.2 0 .3-.2.2-.4s-.5-.2-.5.2c0 .1 0 .2.1.2 0 0 .1 0 .1.1s-.1.2-.1.3v.1s-.1.1-.1.1 0 0-.1-.1-.1-.1-.2-.2c0 0 .1-.1.1-.1s0 0 0-.1c0-.2-.2-.4-.4-.3-.1 0-.2.1-.1.3 0 .1.1.2.2.2h.1c.1 0 .1.1.1.1v.1c-.1 0-.1 0-.2 0s-.2 0-.3 0-.1 0-.1-.1h-.1c0-.2-.1-.3-.3-.3-.1 0-.2.1-.2.2-.1.2.1.4.4.3 0 0 .1 0 .1-.1.2.1.5.1.7 0v.1s0 0-.1.1c0 0-.1.1-.1.1s0 0-.1.1c0 0 0 0-.1 0s-.1 0-.2 0c0 0 0-.1-.1-.1-.1-.1-.3 0-.3.1s0 .2.1.2.2 0 .2-.1v-.1h.2c-.1.1-.2.2-.3.3 0 0-.1.1-.1.1s-.1 0-.1-.1v-.1c-.1-.2-.3-.1-.4 0s0 .3.1.3c.1.1.2.1.3 0h.1c-.1.3-.3.7-.3 1.1v.4.1s-.1.1-.2.1c0 0 0 0-.1 0 0-.7-.1-1.4-.1-2 0-.2 0-.3 0-.5 0-.1 0-.1 0-.2 0-.2 0-.4 0-.6 0-.3 0-.6 0-.8 0-.1 0-.1 0-.2s0-.3 0-.4 0-.3 0-.4 0-.1 0-.2 0-.2.1-.3v-.1c0-.1.1-.2.1-.3.1-.2.2-.4.4-.5.1 0 .2.1.2.3 0 .1-.1.1-.1.2-.1.1-.2.2-.3.3s-.4.3-.2.5c0 .1.2.2.3.2h.2c.1-.1.2-.2.2-.3s-.1-.3-.1-.3-.1-.1-.1-.1 0-.1.1-.1c0 0 0-.1.1-.1.1.1.3.1.3.3v.1.1.1.3c0 .1.1.1.1.2.1.1.3.1.4 0 0 0 .1-.1.1-.2.1-.2-.1-.4-.2-.4s-.2-.1-.3-.1c0 0-.1-.1-.1-.1.2-.1.5-.1.8 0 .1 0 .2.1.3.2s.2.2.3.2.2 0 .2-.1c.1-.1.1-.2.2-.3 0-.1 0-.2-.1-.3-.2-.1-.4 0-.6 0 0 0-.1 0-.1.1-.1 0-.2 0-.3 0-.2 0-.5 0-.6.1h-.1s-.1 0-.1-.1c-.1-.1-.1-.2-.1-.3s0-.1 0-.2-.1-.2-.1-.2c.1-.1.2-.1.3-.2 0 0 .1-.1.1-.1s.1 0 .1.1c.1.1.2.1.3.2v.2c0 .1.1.2.1.2.2.1.5.1.6-.1.1-.1.1-.3 0-.4-.1-.1-.2-.2-.4-.1-.1 0-.2.1-.3.1 0 0 0 0-.1 0s-.1-.1-.2-.1c0 0 0 0-.1-.1 0 0 0-.1-.1-.1.2-.1.4-.2.6-.2.1.2.4.3.6.5 0 .3.1.4.3.5s.5-.1.5-.3c0-.1 0-.2 0-.3-.1-.2-.3-.3-.5-.2 0 0-.1.1-.1.1s-.1 0-.2-.1c-.2-.1-.3-.1-.4-.2h.2.3.1.1c.1 0 .2.1.3 0 0 0 .1 0 .1-.1s.1-.2 0-.3v-.1c0-.1-.1-.1-.1-.1-.1 0-.1 0-.2 0s-.1.1-.2.1c0 0-.1.1-.1.1-.1 0-.2 0-.3 0 0-.1.1-.2.2-.3 0 0 .1-.1.1-.1h.1c.1 0 .3-.1.3-.2s.1-.2 0-.3c0-.1-.2-.2-.3-.3-.2 0-.3.1-.4.3v.3c0 .1.1.1.1.1h.1s-.1.1-.1.1c-.6.1-.6.2-.7.3-.1 0-.1 0-.2 0 0 0 0-.1-.1-.1-.1-.1-.1-.3-.2-.4.1-.1.2-.1.2-.3 0-.3-.2-.4-.4-.4-.1 0-.2.1-.3.2v.3c0 .1.1.2.2.2h.1s.1.1.1.1c0 .1 0 .1.1.2-.1 0-.3 0-.4 0-.2 0-.4-.1-.4-.3v-.1-.1-.1c0-.1-.2-.2-.3-.2-.2 0-.3.1-.4.2v.2c0 .3.3.4.6.3.2.2.6.3 1 .3v.1c-.3.1-.5.2-.7.3s-.4.3-.6.5c-.1-.1-.1-.2-.1-.3 0-.2-.2-.3-.4-.2h-.1s-.1.1-.1.2 0 .3.1.4c0 0 0 0 .1.1h.3.2s-.1.1-.1.1-.1.1-.1.1c-.1.1-.1.2-.2.3s-.1.1-.2.1-.2.1-.3.1-.2 0-.3-.1c-.1 0-.1 0-.2-.1-.2-.1-.3-.2-.5-.3 0 0-.1 0-.1-.1s0-.1 0-.2h-.1s-.1-.1-.1-.1v.1c-.1-.1-.2-.1-.3-.2s-.2-.1-.3-.2c-.2-.1-.5-.2-.7-.2v-.1c.4-.1.7-.1.9-.3 0 0 .1-.1.1-.1.1 0 .1.1.2 0 .1 0 .3-.1.3-.2.1-.2 0-.5-.2-.5-.2-.1-.4 0-.5.2v.4c-.1.1-.1.1-.1.2-.1.1-.2.1-.3.1s-.1 0-.2 0-.1 0-.2 0c0-.1 0-.2.1-.2.1-.1.2-.1.2-.1.1-.1.1-.2.1-.3-.1-.2-.4-.3-.6-.2-.1 0-.1.1-.2.2 0 .1 0 .2.1.3 0 .1.1.1.2.1 0 .1-.1.3-.1.4 0 0 0 .1-.1.1s-.1 0-.2 0c-.1-.1-.2-.3-.3-.4 0 0-.1-.1-.1-.1s.1-.1.1-.1c.1-.1.1-.3 0-.4 0-.1-.2-.2-.3-.2s-.3 0-.4.1c-.2.2 0 .6.3.6h.1s.1.1.1.1c.1.1.1.1.2.2 0 0 .1.1.1.1-.1 0-.1 0-.1 0s-.1 0-.2 0c0 0-.1 0-.1-.1-.1-.1-.2-.1-.3-.1s-.1.1-.2.1c-.1.1 0 .4.1.4s.2 0 .3-.1c.1 0 .1-.1.2-.1h.3.1.1c-.1.1-.1.1-.2.2 0 0-.1 0-.1.1 0 0-.1.1-.1.1s0 0-.1 0c-.1-.1-.3 0-.4.1s-.2.2-.2.4.2.4.5.3c.2 0 .3-.1.3-.2.1-.1 0-.3 0-.4.2-.1.4-.2.5-.4 0 0 0-.1.1-.1.2 0 .4.1.6.2 0 .1-.1.1-.1.2 0 0-.1.1-.2.1h-.1c-.1 0-.2-.1-.3-.1h-.1s-.1 0-.1.1c-.1.1-.1.2-.1.3 0 .3.3.4.6.3.1 0 .2-.1.2-.2s0-.2 0-.3.2-.2.2-.3c0 0 .1-.1.1-.1h.1c.1.1.2.1.3.2-.1.1-.1.2-.1.4v.1c0 .1-.1.3-.2.3h-.1c-.1 0-.2 0-.3 0-.2 0-.4.1-.6.1h-.1-.1c-.2 0-.5 0-.5.2 0 .1 0 .2.1.2.1.1.1.3.3.3.1 0 .2-.1.2-.1.1-.1.2-.3.4-.3.2-.1.4-.1.6-.1h.2c.2 0 .3-.1.3-.2 0 0 0 0 0-.1.1.1.1.2.2.2-.1.1-.1.3-.1.4s.1.3.3.3c.1 0 .3 0 .3-.1.1-.1.1-.2.1-.3s-.1-.2-.1-.3c-.1.2-.3.1-.4.1-.1-.1-.2-.2-.3-.3-.1-.2 0-.3.2-.3.2.1.3.3.4.4s.1.2.2.3c0 0 .1.1.1.1s.1.1.1.2v.2c0 .4 0 .9-.1 1.3v.3.4.3.1.3.9 1 .1c-.1 0-.1-.1-.2-.1 0-.1 0-.1 0-.2 0-.2 0-.3-.1-.4 0-.1 0-.1-.1-.2-.1-.2-.1-.4-.2-.5 0-.1-.1-.1-.1-.2.1.1.2.1.3.1s.1-.1.1-.2c0-.2-.3-.3-.4-.2 0 .1 0 .2-.1.2 0 0-.1-.1-.1-.1-.1-.1-.1-.1-.2-.2 0 0-.1-.1-.1-.1h.2v.1c0 .1.1.1.2.1s.1-.1.1-.1c.1-.2-.2-.3-.3-.2v.1s0 0-.1 0-.1 0-.2 0c0 0-.1-.1-.1-.1 0-.1-.1 0-.1-.1v-.1h.1.2c.2 0 .3 0 .4-.1 0 0 .1.1.1.1.2.1.3-.1.3-.2 0-.2-.1-.3-.3-.3s-.2.1-.2.3c0 0-.1.1-.2.1-.1 0-.2 0-.3 0h-.1c0-.1.1-.1.2-.2h.1c.2-.1.2-.4 0-.4-.2-.1-.3 0-.3.2 0 .1.1.1.1.2s-.1.1-.1.2c0 0-.1.1-.1.1s-.1 0-.1-.1v-.1c0-.1-.1-.2-.1-.3 0 0 .1 0 .1-.1.1-.1.1-.3 0-.4s-.2-.1-.2-.1c-.1 0-.2.1-.2.3 0 .1.1.2.2.2 0 .1.1.2.1.3-.1 0-.2-.1-.2-.1-.1-.1-.2-.2-.3-.2s-.2.1-.2.3c0 .1.1.1.2.1h.2.1c.1 0 .1 0 .2.1 0 0 .1 0 .1.1-.1.1-.3.1-.4.1-.1-.1-.2-.1-.3-.1s-.2.1-.2.2c0 .2.1.3.2.3.2 0 .4-.1.3-.4.1 0 .3 0 .4-.1 0 0 .1-.1.1-.1.1.1.3.1.3.3 0 0-.1.1-.1.1s-.1.1-.1.1-.1 0-.1-.1c-.1-.1-.2-.1-.3-.1s-.2.2-.1.3c0 .1.2.2.4.1.1 0 .1-.1.1-.2.1-.1.2-.1.3-.2.1 0 .1.1.2.2v.1.1c0 .1.1.1.1.2.1.1.1.3.1.5v.5.2c-.1-.1-.3-.1-.4-.2 0 0 0 0-.1 0 0 0-.1 0-.1-.1-.1-.1-.2-.1-.3-.2s-.2-.2-.3-.2c-.1-.1-.2-.2-.3-.2-.1-.1-.2-.2-.3-.3-.2-.2-.4-.4-.5-.6-.1-.1-.1-.2-.2-.4 0-.1-.1-.3-.1-.5 0-.1 0-.2 0-.2v-.1s0 0-.1-.1c0 0-.1-.1-.1-.1s0 0-.1 0c-.1.3-.1.8-.1 1.2.1.3.2.6.3.8 0 0 .1.1.1.1-.1 0-.2 0-.3 0s-.2 0-.3 0-.2 0-.3-.1c-.4-.1-.6-.2-.9-.4-.1 0-.1-.1-.1-.1s0 0 0-.1c.1-.1.1-.2.3-.1.1 0 .2.1.3.2s.2.2.3.3h.2c.1 0 .2-.2.3-.3 0-.1 0-.2 0-.2 0-.1-.2-.2-.3-.2-.1 0-.2.1-.2.1-.1 0-.1.1-.2.1h-.1-.1c0-.1 0-.2.1-.2v-.1c.1-.1.2-.1.3-.1h.2.1.1c.1 0 .2-.1.2-.2 0-.2-.1-.4-.3-.4-.1 0-.2 0-.2 0-.2.1-.3.3-.3.6 0 0-.1.1-.1.1-.1-.1-.1-.2-.1-.2-.1-.2-.1-.4 0-.6 0-.1.1-.2.1-.2.1-.1.1-.2.1-.3s-.1-.2-.1-.2c-.1-.1-.4-.1-.5 0s-.1.2-.1.4c0 .1.1.2.1.3 0 0 .1.1.1.1v.3c0 .2.1.4.2.6v.1c0 .1-.1.2-.2.2s-.1 0-.2.1c-.1 0-.1 0-.2.1 0 0-.1.1-.1.1-.1 0-.1-.1-.2-.1 0 0-.1-.1-.1-.1v-.1c0-.1.1-.3.2-.3h.1c.1 0 .2-.1.2-.1 0-.1 0-.2 0-.2 0-.1-.1-.2-.1-.3 0 0-.1-.1-.2-.1s-.3.1-.3.1c-.1.1-.1.2-.1.3s.1.1.1.2c0 0 .1.1.1.1v.1s0 .1-.1.1c0 0-.1.1-.1.1s-.1-.1-.1-.1c-.1-.1-.2-.3-.2-.4 0 0 .1-.1.1-.1 0-.1.1-.1.1-.2s.1-.1.1-.2.1-.1.1-.2c.2 0 .3-.1.4-.3.1-.1 0-.3 0-.4-.1-.1-.3-.2-.5-.2-.2.1-.3.3-.2.6 0 0 .1.1.1.1v.1c0 .2-.1.3-.2.4 0 0 0 0-.1 0-.1-.1-.1-.3-.1-.4s0-.1 0-.2v-.1c0-.1 0-.3 0-.4s-.1-.1-.2-.1c-.2 0-.3.1-.3.4 0 .1.1.1.1.2 0 0 0 .1.1.1 0 0 .1 0 .1.1v.1.1c0 .1.1.1.1.2-.1 0-.2-.1-.3-.1 0 0-.1-.1-.2-.1v-.1c-.1-.2-.2-.3-.5-.2-.1 0-.2.1-.3.2 0 .2 0 .3.1.4.1.1.3.1.4 0 0 0 .1-.1.1-.1.1.1.3.1.4.2 0 0 .1 0 .1.1v.1.1c-.1.1-.3.2-.5.3 0 0-.1-.1-.1-.1-.1-.1-.3-.1-.3 0-.1 0-.2.1-.2.2-.1.2.1.4.3.4.1 0 .2 0 .2-.1 0 0 .1-.1.1-.1 0-.1 0-.1 0-.2 0 0 .1-.1.1-.1s.1-.1.1-.1v.3.4c0 .1-.1.2-.2.2 0 0 0 0-.1 0-.2 0-.3.1-.3.2-.1.2.1.4.3.5s.5-.1.5-.3c0-.1-.1-.2-.1-.3.2-.2.2-.7.1-1h.1c.1.1.1.2.2.3 0 0 .1.1.1.1v.1c0 .1 0 .2-.1.3s-.2.1-.2.3.1.3.3.2c.1 0 .2-.1.2-.2s-.1-.2-.1-.2h-.1c0-.1 0-.2.1-.2 0 .1.1.1.1.2.1.1.1.1.1.2.1.1.2.2.3.3-.1.1-.4.1-.5.2v.2c0 .1.1.3.3.3.1 0 .2 0 .3-.1.1 0 .1-.1.1-.2s0-.2-.1-.3c0 0-.1-.1 0-.1.4.2.7.5 1.2.6.2.1.4.1.7.2h.6.2c.1 0 .1.1.2.1.2.1.3.2.5.3s.5.3.7.5.4.3.6.6c.1.1.3.3.4.4 0 0 .1.1.1.2v.1.6.3.7.4c0 .4 0 .9-.1 1.3v.9.6.2c-.1 0-.3-.1-.4-.2-.4-.1-.7-.3-1.1-.4-.1 0-.1 0-.2-.1 0-.2 0-.4-.1-.6 0-.1 0-.1 0-.2.1 0 .1.1.2.1s.1.1.2.1c.1.1.1.1.1.2s.1.1.1.2l.2.2h.1c.2 0 .3-.1.5-.1 0-.1.1-.1.1-.2s0-.2 0-.2c-.1-.1-.1-.1-.2-.2 0 0-.1-.1-.2-.1s-.2 0-.3 0-.1 0-.2.1c0 0-.1.1-.1.1s-.1 0-.1-.1c-.1-.1-.2-.1-.2-.2s.1-.1.2-.2c0 0 .1-.1.1-.1s.1-.1.1-.1h.1.1.1c.2.1.5.1.7-.1 0 0 0 0 0-.1v-.1s0 0 0-.1c0 0 0 0 0-.1s0-.1 0-.2c0 0 0-.1-.1-.1 0 0-.1-.1-.1-.1s-.1-.1-.1-.1h-.1c-.1 0-.2 0-.3.1 0 0-.1.1-.1.1s0 .1-.1.1c0 0-.1.1-.1.1v.2s0 .1-.1.1h-.1v-.1c0-.1 0-.2 0-.3 0-.2 0-.4.1-.6 0-.1 0-.1.1-.1h.1s.1 0 .1-.1c0 0 .1-.1.1-.1s.1-.1.1-.1v-.1c0-.1 0-.1 0-.1 0-.1-.1-.1-.1-.2 0 0 0 0-.1 0 0 0-.1-.1-.1-.1h-.1-.1c-.1 0-.2 0-.2.1 0 0-.1.1-.1.2v.3.1c0 .1.1.2.1.3v.3.7.1.1c0 .1-.1.2-.2.2s-.1.1-.2.1-.1-.1-.1-.2-.1-.3-.1-.4 0-.1-.1-.2c0-.1-.1-.2-.1-.3 0-.1 0-.1-.1-.2 0 0 0-.1-.1-.1v-.1s0 0 0-.1v-.1c0-.1-.1-.1-.1-.2v-.1s-.1-.1-.1-.1.1-.1.1-.1c.1 0 .1.1.1.1h.1c.1 0 .3.1.4 0 .1 0 .1-.1.1-.2s.1-.2.1-.2c0-.2-.1-.3-.2-.4s-.3-.1-.4 0c0 0-.1.1-.1.1v.1.1.1s-.1.2-.1.2 0-.1-.1-.1c0-.1-.1-.1-.1-.1s-.1-.1-.1-.1 0-.1-.1-.1-.1 0-.1-.1c0 0 .1-.1.1-.1s.1.1.1.1c.1 0 .2.1.3 0 .1 0 .1-.1.1-.2s0-.2 0-.3-.1-.1-.1-.1c-.1 0-.1 0-.2 0s-.2.1-.2.1v.2.1c0 .1-.1.2-.1.2s-.1 0-.1-.1c0 0-.1 0-.1-.1-.1 0-.1-.1-.1-.1s-.1-.1-.1-.1-.1-.1-.1-.1 0 0-.1 0c0 0 0 0-.1-.1 0 0 0 0-.1 0 0 0-.1-.1-.1-.1s0-.2.1-.2h.1.1.5.3c.1 0 .2 0 .2-.1 0 0 .1-.1.1-.1s.1 0 .1.1h.1.3c.1 0 .1-.1.1-.1.1-.1.1-.1.1-.2 0 0 0 0 0-.1s0-.2-.1-.3c0-.1-.1-.1-.2-.1-.1-.1-.3-.1-.4 0 0 0-.1 0-.1.1-.1 0-.1 0-.1.1 0-.6 0-.5 0-.3 0 0 0 0-.1 0s-.1.1-.2.1-.2 0-.3.1c-.2 0-.3 0-.5 0-.1 0-.2 0-.2 0s0-.1.1-.1c0 0 0-.1.1-.1.1-.1.1-.1.2-.1.2 0 .3-.1.4-.2 0-.1.1-.1.1-.2s0-.2-.1-.3c0-.1-.1-.1-.2-.1h-.1c-.1 0-.2 0-.3 0s-.2.1-.2.2c-.1.2 0 .3.1.5 0 0 .1.1.1.1s-.1.1-.1.1v.1c0 .1-.1.1-.1.2 0 0 0 .1-.1.1 0 0 0 0-.1.1 0 0 0 0-.1 0 0 0 0 0-.1 0h-.1s0-.1-.1-.2c0-.1-.1-.2-.1-.2-.1-.1-.1-.2-.1-.3 0 0-.1-.1 0-.1h.1.1s.1-.1.1-.1c0-.1 0-.2 0-.3s0-.1 0-.1c0-.1-.1-.1-.2-.2 0 0-.1 0-.1-.1-.1 0-.2 0-.3 0 0 0-.1.1-.1.1-.1.1-.1.2-.1.4 0 .1.1.2.1.3 0 0 .1 0 .1.1.1 0 .1.1.2.1 0 0 .1.1.1.1.1.1.1.2.1.3 0 0 .1.2 0 .2h-.1c-.1 0-.1 0-.2-.1h-.1s-.1-.1-.1-.2c-.1 0-.1-.1-.2-.1s-.1-.1-.2-.1-.2.1-.2.1c-.1.1-.1.2-.1.3v.1s.1.1.1.1c.2.1.4 0 .6 0h.1.2.2s.1 0 .2.1c0 0 .1 0 .1.1 0 0-.1.1-.1.1s-.1.1-.1.1 0 0-.1 0-.1 0-.2 0h-.1s-.1 0-.2 0c0 0-.1-.1-.1-.1-.1 0-.2-.1-.3-.1s-.2 0-.3.1c-.1 0-.1.1-.1.2 0 0-.1.1-.1.2 0 .2 0 .3.1.4s.1.1.2.1.1 0 .2.1h.1c.1 0 .1 0 .2-.1.1 0 .2-.1.2-.2s0-.1.1-.2c0 0 0 0 0-.1s0-.1 0-.2c.1 0 .2 0 .2-.1h.1c.1 0 .1 0 .1-.1h.1c.1 0 .1-.1.2-.1 0 0 .1-.1.1-.1s.1 0 .1.1h.1.1.1s.1.1.1.1h.1.1.1s-.1.1-.1.1-.1 0-.1.1c0 0-.1.1-.1.1-.1 0-.1 0-.2-.1s-.1-.1-.2-.1h-.1c-.1 0-.2 0-.2 0-.1 0-.1 0-.2.1 0 .1-.1.1-.1.2v.1c0 .1 0 .2.1.3l.2.2h.1.1.1c.2 0 .2 0 .3-.1 0 0 0-.1.1-.1 0-.1 0-.1.1-.2 0 0 0 0 0-.1.1-.1.2-.2.3-.2 0 0 .1 0 .1-.1h.1.1s.1 0 .1.1c0 0 .1.1.1.1s.1.1.1.1.1.1.1.1.1 0 .1.1h-.1c-.1 0-.1.1-.2.2 0 .1-.1.1-.1.2v.1.1s-.1.1-.1.1 0 0-.1 0c0 0 0 0-.1 0s-.1 0-.2-.1c-.1 0-.2 0-.3-.1-.1 0-.1 0-.2 0h-.1s0 0-.1 0c0 0 0 0-.1 0 0 0 0 0-.1 0h-.1s0 0-.1 0h-.1c-.1 0-.1-.1-.1-.1s-.1-.1-.2-.1-.2-.1-.2-.1h-.1c-.2 0-.3 0-.4.2-.1.1 0 .3 0 .5 0 .1.1.2.1.2s.1.1.1.1h.3c.1 0 .2-.1.2-.2.1-.1.1-.1.2-.1h.2c.1 0 .2 0 .3.1.1 0 .1 0 .2.1h.1c.1 0 .1 0 .1.1 0 0-.1.1-.1.1h-.1c-.1 0-.2 0-.3.1h-.1c-.1 0-.2.1-.2.2v.2.1c0 .1.1.2.2.2h.2.2.1c.1 0 .1-.1.2-.2 0 0 0-.1.1-.1 0 0 0 0 0-.1 0 0 0 0 0-.1v-.1-.1-.1c0-.1.1-.1.1-.2.1-.1.2-.1.4-.2 0 .1.1.2.1.2v.1s-.1.1-.1.1 0 .1-.1.1c0 0 0 .1-.1.1v.1s0 .1-.1.1v.1.2c0 .1.1.1.1.2 0 0 .1.1.2.1s.2 0 .3-.1c.1 0 .1-.1.2-.1 0 0 .1-.1.1-.1v-.1c0-.1 0-.2-.1-.3 0-.1-.1-.1-.1-.2-.1-.1-.2-.1-.2-.2-.1-.1-.1-.1-.1-.2s-.1-.2-.1-.3c0 0 0-.1.1-.1 0 0 .1 0 .1-.1.1 0 .1 0 .1-.1h.1s0 0 .1.1c0 0 0 .1.1.1 0 0 .1.1.1.1s.1.1.1.2c0 0 .1.1.1.1 0 .1 0 .1.1.2.1.2.1.3.1.5v.2.5.4.1.1.1.1.1.1c-.1 0-.2 0-.2 0-.1 0-.1 0-.2 0s-.1 0-.2 0h-.1c-.1 0-.3-.1-.4-.1s-.1 0-.2 0-.3-.1-.4-.1-.2-.1-.4-.1c-.1-.1-.2-.1-.3-.2s-.2-.1-.3-.2-.3-.2-.4-.2h-.1s-.1-.1-.1-.1-.1 0-.1-.1c0 0 0 0-.1 0-.2-.1-.3-.3-.5-.5-.3-.3-.4-.8-.5-1.3v-.1s-.1 0-.1-.1c0-.1-.1-.2-.1-.3v-.1c.1-.1.1-.2.1-.3s.1-.2.1-.3h-.1s0 0-.1.1-.2.1-.4.1c-.1 0-.3 0-.5 0h-.1s0 .1.1.1c0 0 .1.1.1.1.1.1.2.2.3.2h.1-.1c0 .1.1.1.1.1v.1c.1.1.2.3.2.4v.2c-.1 0-.1 0-.2-.1s-.3-.1-.4-.1-.2-.1-.2-.1c-.1 0-.3-.1-.4-.1h-.1s.1 0 .1-.1c0 0 .1 0 .1-.1.1 0 .1-.1.2-.1.1-.2-.1-.4-.2-.5-.1 0-.2 0-.3 0s-.1.1-.1.2c0 .2.2.3.2.5h-.1c-.1 0-.2 0-.4 0-.1 0-.1 0-.2 0s-.1 0-.2 0v-.1s0-.1.1-.1h.1.1.1c.1 0 .1-.1.1-.2s-.1-.2-.2-.2c-.2 0-.3.1-.3.3v.2c-.1.1-.1.2-.2.3-.1 0-.1 0-.2.1h-.1-.1s0-.1.1-.1c.1-.2.2-.3.3-.5 0-.1.1-.2.1-.3v-.1c.2 0 .3-.2.3-.4 0-.1-.1-.2-.2-.3-.1 0-.1-.1-.2-.1s-.1 0-.2 0c0 0-.1.1-.1.1v.3c0 .1.1.1.1.1 0 .1.1.2.1.3s0 .1-.1.2-.1.2-.2.3c0 0-.1.1-.1.1 0-.1-.1-.2-.1-.3 0 0 0 0 0-.1.1-.1.1-.2 0-.4 0-.1-.1-.1-.2-.2-.2-.1-.5.1-.5.3 0 .1.1.2.1.3.1 0 .1.1.3.1h.1v.1.1c0 .1 0 .2.1.3 0 0 0 0-.1 0h-.1-.1c-.1 0-.2 0-.3-.1-.1 0-.1 0-.1 0 0-.2 0-.3-.1-.4-.1-.1-.2-.1-.3 0-.1 0-.1 0-.1.1-.1.1-.1.2-.1.3 0 .3.3.4.6.3 0 0 .1-.1.1-.1h.1.2s.2 0 .2.1c0 0 0 0-.1.1-.1 0-.2.1-.2.2-.1 0-.2 0-.3.1 0 0-.1 0-.1.1-.1.2 0 .3.1.4h.1.1c.1 0 .1 0 .1-.1h.1c0-.1.1-.1.1-.2v-.1s.1-.1.1-.1c.1-.1.2-.2.3-.2h.1v.2c0 .1-.1.2-.1.3 0 0 0 .1-.1.1h-.1s0 0-.1 0c-.1.1-.1.1-.2.2-.1.2 0 .5.2.5h.1c.1 0 .2 0 .3-.1.1 0 .2-.2.2-.3s0-.2-.1-.3c0 0-.1-.1-.1-.1s0 0 0-.1v-.1c0-.2.1-.4 0-.6.1-.1.1-.1.2-.1s.1-.1.2-.1h.2v.2c0 .1 0 .2-.1.2-.2 0-.3.1-.4.2 0 .1-.1.1-.1.2s.1.2.1.2c-.2.2-.1.2.1.2.1 0 .2-.1.2-.1s.1 0 .1-.1c0 0 .1-.1.1-.1 0-.1 0-.2-.1-.2 0 0-.1-.1-.1-.1s0-.1 0-.2 0-.2.1-.3h.2.2c0 .1 0 .2.1.3 0 .1.1.1.1.2s.1.2 0 .3c0 0-.1.1-.1.1-.1 0-.1.1-.2.1s-.1.1-.2.1c-.1.1-.1.1-.2.2 0 0-.1.1-.1.1s0 0-.1 0h-.1s-.1 0-.1.1c-.1 0-.1.1-.2.1 0 0-.1.1-.1.2v.2c0 .1.2.2.3.2h.2c.1 0 .1-.1.2-.2 0-.1 0-.3 0-.4s.1-.2.1-.3l.3-.3s.1-.1.1-.1v.1c0 .1-.1.3-.1.4s.1.2.1.3h.1.1.1.2c.1 0 .1-.1.2-.2 0-.1.1-.1.1-.2s-.1-.3-.2-.3h-.1s0-.1-.1-.1c0-.1-.1-.1-.1-.2s0-.3.1-.3h.1.1v.1c0 .1 0 .1.1.2 0 .1.1.1.1.2.1 0 .1.1.3.1h.1s.1 0 .1-.1c.1-.1.1-.5-.1-.6h-.1c-.1 0-.3 0-.5 0-.1 0-.2 0-.3 0-.1 0-.2-.1-.2-.2s0-.1 0-.2h.2c.1 0 .2 0 .2.1h.1c.1 0 .3.1.4.2h.1.1c.1.1.2.2.3.2l.4.4c.1.1.2.3.3.5s.2.3.3.5c0 0 .1.1.1.1s.1.1.1.1c.1.1.3.3.4.4s.2.2.3.2c0 0 .1.1.1.1h.1c.1.1.3.1.4.2s.2.1.3.1.1.1.2.1.2.1.3.1c.2 0 .4.1.6.2h.2.2.1.1c.1 0 .3.1.4.1h.1.1c.1 0 .2.1.3.1 0 0 .1 0 .1.1h.1c0 .2-.1.3-.2.5 0 .1-.1.1-.1.2s-.1.1-.1.2c-.2.2-.4.5-.7.6-.1-.1-.1-.1-.1-.2 0 0 0-.1.1-.1.1-.1.2-.2.3-.2s.2-.1.3-.1.2-.1.2-.2c0-.2-.1-.4-.3-.4s-.4.1-.4.2v.3.1s-.1.1-.1.1-.1.1-.1.1-.1-.1-.1-.1c-.1-.1-.1-.2-.1-.3v-.1s0-.1.1-.1c.1-.1.1-.2.1-.3 0-.2-.2-.3-.4-.3s-.3.2-.3.3c0 .2.2.3.3.4h.1c0 .1-.1.1-.1.1-.1 0-.3 0-.4 0s-.2-.1-.3-.2-.1-.2-.2-.3-.1-.2-.3-.2c-.1 0-.3.2-.3.3v.3c.1.1.3.1.5.1h.2c.1 0 .1 0 .2.1.2.1.4.1.6.1h.1c.1 0 .1.2.1.3v.2.2c0 .1 0 .1.1.1-.1 0-.2.1-.3.1h-.1s-.1-.1-.1-.1c-.1-.1-.2-.2-.2-.3s0-.2 0-.3-.1-.1-.2-.2c-.1 0-.2-.1-.3-.1s-.2.1-.3.2v.3c0 .1.1.2.2.2h.3.1s.1.1.1.1c0 .1 0 .1.1.2-.1 0-.2 0-.3.1-.1 0-.1 0-.2 0s-.1 0-.2 0v-.1c-.1-.1-.2-.2-.3-.3 0 0-.1-.1-.1-.1s0 0 0-.1c0 0 .1-.1.1-.2.1-.3-.3-.5-.5-.4-.1 0-.2.1-.2.2-.1.1 0 .3.1.4s.2.1.3.1h.1s.1.1.1.1c.1 0 .1.1.1.1.1.1.1.1.1.2v.1c-.2 0-.4-.1-.6-.1-.1-.1-.3-.3-.5-.2-.1 0-.2.3-.2.4.1.1.3.1.4.1s.1 0 .2-.1h.2.2c0 .1-.1.1-.2.2 0 0-.1 0-.1.1 0 0-.1.1-.1.1h-.1c-.2 0-.4.2-.4.4 0 .1.1.3.3.3s.3-.1.4-.2v-.1c0-.1 0-.2-.1-.3.1-.1.2-.1.2-.2 0 0 .1-.1.1-.1s.1-.1.1-.1h.1.1c0 .2.1.3.1.5-.2 0-.3.1-.3.3-.1.3.2.5.5.4.1 0 .1-.1.2-.2s0-.3-.1-.4c0 0-.1-.1-.1-.1-.1-.1-.1-.2-.1-.3.1 0 .1 0 .2.1.1 0 .2.1.3.2 0 0 .1.1.1.1v.1.1s0 .1-.1.1v.2c0 .2.1.3.3.4.2 0 .3-.1.4-.3s-.1-.5-.4-.5h-.1c0-.1-.1-.1-.1-.2 0 0-.1-.1-.2-.1-.1-.1-.2-.1-.3-.2-.1 0-.1-.1-.2-.1h-.1v-.1h.3.1s0 0 .1.1.1.1.1.1.1 0 .1.1v.1c.1.2.5.2.5-.1 0-.1 0-.1-.1-.2 0-.1-.2-.1-.3-.1h-.1s0 0-.1 0c0 0-.1 0-.1-.1 0 0-.1-.1-.1-.1.1 0 .1 0 .2-.1.2 0 .3-.1.5-.1h.1s.1.1.1.1v.3c0 .2.2.3.4.2.1 0 .2-.1.2-.2 0 0 0-.1 0-.2 0-.2-.1-.3-.3-.3h-.1s.1-.1.1-.1c.1-.1.2-.1.3-.2.3-.2.6-.5.9-.9 0-.1.1-.1.2-.2.1 0 .1.1.2.1s.1.1.2.1.1.1.2.1c0 0 0 0 .1.1 0 0 .1 0 .1.1.1.1.2.2.3.2.1.1.2.2.2.3v.1.2.3.3c0 .4 0 .8-.1 1.1v.6.3.3c0 .5-.1.9-.3 1.3-.1.1-.1.3-.2.4s-.1.3-.2.4c-.2.2-.3.5-.5.7-.1.1-.2.2-.3.3.1.1.3.3.4.4 0 0 .1.1.1.1s.1-.1.2-.1c.2-.1.4-.2.5-.3.3-.2.6-.3.9-.4h.2c.3 0 .5.2.6.4.2.4.1 1.1.1 1.6v.2h.1.5.4c0-.6.1-1.2.7-1.1.2 0 .4.1.5.2.2.1.3.2.5.3.3-.2.6-.4.9-.6h.1c-.3-.2-.6-.3-.9-.5s-.6-.4-.8-.7-.4-.6-.5-1c-.1-.3-.1-.6-.2-.9 0-.4 0-.9-.1-1.3 0 0 0 0 0-.1 0 0 0 0 0-.1 0 0 0 0 0-.1s0-.2 0-.4c0-.3 0-.6 0-.9 0 0 0 0 0-.1 0 0 0 0 0-.1 0 0 0 0 0-.1s0-.2 0-.3 0-.2 0-.3 0-.1 0-.2c.1-.2.1-.3.2-.5.2-.2.4-.4.6-.5.1-.1.2-.2.4-.2.1-.1.3-.1.4-.2.1 0 .2-.1.3-.1.1.1.2.3.3.4s.3.3.4.4c.2.2.4.3.5.4 0 0 .1.1.1.1s.1 0 .1.1c-.2 0-.4 0-.4.2 0 .1 0 .3.1.3s.2.1.3.1.3-.1.3-.3c0-.1-.1-.2 0-.3 0 0 0-.1.1-.1h.1.1c.2.1.3.1.5.1h.1c0 .1-.1.1-.2.2 0 0-.1-.1-.1-.1-.2-.1-.4.1-.4.2s.1.2.2.2c.2 0 .3-.1.3-.3.1 0 .1-.1.2-.1 0 0 .1-.1.1-.1h.1.3v.1c-.1 0-.2.1-.3.1-.2.1-.3.2-.4.3 0 0-.1.1-.1.1s0 .1-.1.1c-.2-.1-.4.1-.4.2 0 .2.1.4.3.4.2.1.5-.1.4-.3 0 0 0-.1 0-.2 0 0-.1-.1-.1-.1v-.1-.1s.1-.1.1-.1c.1 0 .1-.1.2-.1.1-.1.2-.1.3-.1v.1s0 .1-.1.1c-.1.1-.1.1-.2.2-.1.2.1.5.3.5s.3-.1.3-.3c0-.1 0-.1-.1-.2 0-.1-.1-.1-.1-.1h-.1c0-.2 0-.4.1-.5h.1c.1.1.2.2.4.3 0 0 .1 0 .1.1 0 0 0 .1-.1.1-.1.2.1.5.3.5h.2s0 0 .1-.1.1-.2.1-.4c0-.1-.1-.2-.1-.2-.1-.1-.2-.1-.3-.1h-.1s-.1 0-.1-.1c0 0-.1-.1-.1-.1-.1-.1-.1-.1-.2-.2h.2.1.1.1c.1 0 .3.1.4 0 0 0 .1-.1.1-.1 0-.1 0-.1 0-.2s-.1-.1-.1-.2c-.1 0-.2 0-.2 0-.1 0-.2.1-.2.1s-.1.1-.1.1h-.1c-.1 0-.2 0-.3.1-.1 0-.1 0-.2 0v-.1c0-.1.1-.1.1-.2 0 0 .1-.1.2-.1h.1.1c.3 0 .5-.2.5-.5 0-.2-.2-.3-.4-.3s-.4.2-.4.4c0 .1.1.2.1.3-.1.1-.2.1-.2.2-.1.1-.1.2-.2.2 0 0 0 .1-.1.1 0 0-.1 0-.2 0s-.1 0-.2 0-.2 0-.3-.1c0-.1 0-.1.1-.2 0-.1.1-.1.1-.1h.1.3c.1 0 .1-.1.1-.1.1-.1 0-.4-.1-.5s-.4-.1-.5 0c-.1 0-.1.1-.1.2v.3c0 .1-.1.2-.1.2 0 .1-.1.1-.2.2-.1 0-.2-.1-.3-.1h-.1v-.1c0-.1 0-.2 0-.3v-.1c0-.1.1-.3.1-.3h.1c.2 0 .3 0 .4-.1.1 0 .2-.1.4-.1h.2c.2 0 .5 0 .5-.3 0-.1-.1-.2-.1-.2s-.1-.1-.1-.1c-.1 0-.1-.1-.2 0-.2.1-.2.4-.4.5-.1.1-.3.2-.5.1-.1 0-.1 0-.2-.1 0 0 .1 0 .1-.1.1-.1.3-.2.3-.4 0-.1-.1-.3-.2-.3-.2-.1-.5.1-.5.3s0 .3.1.4v.1.1c0 .1 0 .2-.1.3 0 0-.1.1-.1.1s-.1-.1-.1-.1-.1-.1-.1-.1 0 0 0-.1 0-.1 0-.2c0 0 0-.1 0-.2s-.2-.2-.3-.2-.2 0-.3.1-.1.2-.1.3c0 0 0 .1.1.1.1.1.2.1.3.1.2 0 .3.1.4.2 0 0 .1.1.1.2s-.1.2-.1.2c-.4-.2-.7-.6-.9-1-.1-.1-.1-.3-.2-.4.1 0 .1 0 .2-.1s.3-.1.4-.1.2 0 .2-.1c.1 0 .3-.1.4-.1h.1.1.1.1.1.1c.1 0 .2-.1.3-.1s.1-.1.2-.1h.1c.1 0 .2-.1.3-.1s.1-.1.2-.1.1 0 .1-.1c.1.1.2.2.3.2s.3 0 .5.1c0 .1.1.1.1.1.1.1.1.2.2.2 0 0 .1.1.1.1s.1.1.1.1c-.1-.3 0-.6.1-.8s.2-.3.3-.4c0 0 0 0 0-.1-.1 0-.1 0-.2.1-.1 0-.1.1-.2.1-.1.1-.2.1-.2.2 0 0 0 .1-.1.1 0-.1.1-.1.1-.2-.1 0-.2.1-.2.2v.1-.1-.1c-.1 0-.2 0-.3 0s-.3 0-.4-.1c.4-.3.8-.7 1.1-1.1.1-.2.3-.5.5-.6.2-.2.4-.4.6-.5.1-.1.3-.2.5-.2.1 0 .2-.1.3-.1s.2-.1.3-.1v.2c0 .1-.1.1-.1.2-.1 0-.1.1-.2.1s-.2 0-.3 0h-.1c-.1 0-.3 0-.3 0-.2.1-.2.4-.1.6 0 0 .1.1.1.1h.3c.1-.1.1-.2.2-.3 0 0 0 0 0-.1v-.1s.1 0 .1-.1h.1v.1.2c0 .1 0 .1-.1.2 0 0 0 .1-.1.1h-.1c-.1.1-.2.2-.2.3s0 .2.1.3c0 0 .1.1.1.1.1 0 .2.1.3 0 .1 0 .2-.1.2-.2.1-.2 0-.4-.1-.6 0 0-.1-.1 0-.1s.2.1.3.2c.2.1.3.3.3.6 0 .2 0 .3.1.4 0 0 .1.1.1.1h.3c.1 0 .3-.1.3-.3v-.1c0-.1-.1-.1-.1-.1-.1-.1-.2-.1-.3-.2h-.1s-.1 0-.1-.1c0 0-.1 0-.1-.1-.1-.1-.3-.3-.4-.4 0 0-.1 0-.1-.1 0 0-.1 0-.1-.1s0-.2 0-.3c0 0 0-.1.1-.1 0-.1.1-.1.1-.2s0-.1 0-.2h.4c.1.1.1.2.1.4v.1c0 .1-.1.1-.1.1s-.1.1-.1.2v.2c0 .1.1.1.1.2.1.1.2.1.3.1s.1-.1.2-.1c.1-.1.1-.2.1-.3s0-.1-.1-.2-.2-.2-.3-.2h-.1c-.1 0-.1-.1-.1-.2s0-.2 0-.2c.2 0 .3.1.5.2 0 0 .1 0 .1.1v.1.3.2.2s0 .1-.1.1c0 0 0 .1-.1.1-.2.3 0 .6.3.6.1 0 .3 0 .3-.1.1-.1.2-.3.1-.5 0-.1-.1-.1-.1-.1s0 0-.1 0-.1 0-.2-.1c0 0 0 0 0-.1s-.1-.2-.1-.2 0-.1 0-.2 0-.1 0-.2c0 0 .1.1.1.1.1.1.2.1.3.2 0 0 .1.1.1.1v.2.1c.1.1.1.2.2.2.1.1.2 0 .3-.1 0 0 .1-.1.1-.1 0-.1 0-.2-.1-.3s-.3-.1-.4-.1c1.4.7 1.4.7 1.3.5-.1.1-.1.1 0 0-.1 0 0 0 0 0zm-12.7 5.2v1.2.6.3.3s0-.1-.1-.1c0-.1 0-.1 0-.2s0-.2 0-.3c0-.2 0-.4-.1-.7 0-.4-.1-.9-.1-1.3 0-.1 0-.3 0-.4 0-.2 0-.4 0-.7 0-.8.1-1.6.2-2.2v2.4c.1.3.1.7.1 1.1zm0-12.2s0 .1 0 0c-.1 0-.1 0 0 0-.1-.2-.1-.2-.1-.3s.1-.3.1-.3h.1c-.1.2-.1.4-.1.6zm.3 2.2v-.1c0-.3-.1-.5-.1-.8 0-.4 0-.9.1-1.3v-.1s0 0 0-.1v-.1s0 0 0-.1z" fill-rule="nonzero"/></g><path d="m26.2.5c-14.4 0-26.1 11.7-26.1 26.1s11.7 26.1 26.1 26.1 26.1-11.7 26.1-26.1-11.7-26.1-26.1-26.1zm0 50.9c-13.7 0-24.9-11.1-24.9-24.9 0-13.7 11.2-24.9 24.9-24.9 13.8 0 24.9 11.1 24.9 24.9s-11.2 24.9-24.9 24.9z" fill-rule="nonzero"/><path d="m26.4 2.9c-13.2 0-23.9 10.7-23.9 23.9s10.7 23.9 23.9 23.9 23.9-10.7 23.9-23.9-10.7-23.9-23.9-23.9zm0 41.3c-9.6 0-17.4-7.8-17.4-17.4s7.8-17.4 17.4-17.4 17.4 7.8 17.4 17.4-7.8 17.4-17.4 17.4z" fill-rule="nonzero"/><path d="m26.4 10.2c-9.1 0-16.5 7.4-16.5 16.5s7.4 16.5 16.5 16.5 16.5-7.4 16.5-16.5c0-9-7.4-16.5-16.5-16.5zm0 32.7c-8.9 0-16.1-7.2-16.1-16.1s7.2-16.1 16.1-16.1 16.1 7.2 16.1 16.1-7.2 16.1-16.1 16.1z" fill-rule="nonzero"/><path d="m30.5 18.8s.1 0 0 0z"/></g><g fill="#fff" transform="translate(6 9)"><path d="m7.1.7c-.4 0-.7.3-.7.7s.3.7.7.7.7-.3.7-.7-.3-.7-.7-.7z"/><path d="m1.3 27.3c-.4 0-.7.3-.7.7s.3.7.7.7.7-.3.7-.7-.3-.7-.7-.7z"/><circle cx="33.4" cy="1.9" r="1"/><path d="m38.5 27.4c-.4 0-.7.3-.7.7s.3.7.7.7.7-.3.7-.7c0-.3-.3-.7-.7-.7z"/></g><g fill="#fff" transform="translate(4 4)"><path d="m8.8 38.7.4-.4-1.2-1 .7-.8 1.2 1.1.4-.5-1.7-1.4-2.5 3 1.6 1.4.4-.4-1.2-1.1.7-.9z"/><path d="m13 39-2.2 1.9.8-2.8-.5-.4-2.1 3.4.5.2 1.2-2-.6 2.4.3.3 1.9-1.7-1.3 2 .5.3 2.1-3.3z"/><path d="m16.2 40.5c-.1-.1-.2-.2-.3-.2l-1.3-.5-1.4 3.6.5.2.6-1.4.8.3c.1 0 .2.1.3.1s.3 0 .4-.1.2-.2.3-.3.2-.3.2-.4c.1-.2.1-.3.1-.5s0-.3 0-.4c0-.2-.1-.3-.2-.4zm-.4 1c-.1.2-.2.3-.3.4s-.2.1-.4 0l-.7-.3.4-1.1.7.3c.1.1.2.1.3.3.1.1.1.2 0 .4z" fill-rule="nonzero"/><path d="m19.7 41.5c-.1-.1-.2-.2-.3-.3s-.2-.1-.4-.1l-1.4-.2-.6 3.8.5.1.3-1.6.8.2c.1 0 .1 0 .2.1 0 .1.1.1.1.2v.3.4.3.2.2.1l.6.1-.1-.3v-.1c0-.1 0-.2 0-.2 0-.1 0-.2 0-.3s0-.2 0-.2c0-.1 0-.2 0-.3s0-.2 0-.3-.1-.2-.1-.2c.1-.1.2-.1.3-.2.1-.2.2-.4.3-.6 0-.2 0-.3 0-.5-.1-.3-.2-.5-.2-.6zm-.4.9c0 .1 0 .2-.1.2 0 .1-.1.1-.1.2 0 0-.1.1-.2.1s-.1 0-.2 0l-.8-.1.2-1.1.8.2c.2 0 .3.1.3.2.1-.1.1.1.1.3z" fill-rule="nonzero"/><path d="m21 45.2 2.2.1.1-.6h-1.7v-1.2l1.6.1v-.6l-1.5-.1v-1l1.6.1.1-.6-2.2-.1z"/><path d="m26 40.9.5 2.6-1.8-2.3-.5.1.7 3.8.5-.1-.5-2.6 1.9 2.4.5-.1-.7-3.9z"/><path d="m29.8 40.2c-.3-.2-.7-.3-1.2-.1l-1 .4 1.4 3.6 1-.4c.4-.2.7-.5.8-.9s0-.9-.2-1.5c-.1-.5-.4-.9-.8-1.1zm.6 2.5c0 .1-.1.2-.2.3s-.2.2-.4.2l-.4.2-1-2.6.4-.2c.3-.1.6-.1.8 0l.3.3c.1.2.2.4.3.6s.2.5.2.6z" fill-rule="nonzero"/><path d="m33.1 41.7-.6-1 1.3-.8-.3-.5-1.3.8-.6-.9 1.4-.9-.3-.4-1.8 1.1 2 3.3 1.9-1.1-.3-.5z"/><path d="m37.6 38.3c-.1 0-.1-.1-.2-.1-.1-.1-.1-.1-.2-.2l-.2-.2c-.1-.1-.2-.1-.2-.2-.1-.1-.2-.1-.3-.1s-.2 0-.3 0c0-.1 0-.2 0-.3-.1-.2-.2-.4-.3-.6-.1-.1-.3-.2-.4-.3s-.3-.1-.4-.1-.2 0-.3.1c-.1 0-.2.1-.3.2l-1 1 2.7 2.8.4-.4-1.1-1.2.6-.6c.1-.1.1-.1.2-.1s.1 0 .2.1c.1 0 .2.1.3.2l.3.3s.1.1.1.1.1.1.1.1.1.1.1.1c.1 0 .1.1.1.1h.1l.5-.4-.2-.1c-.2-.1-.2-.1-.3-.2zm-1.9-.8c0 .1-.1.1-.1.1l-.6.7-.8-.8.6-.6c.1-.1.2-.1.3-.1s.3.1.4.2.1.1.1.2v.2c.2 0 .2.1.1.1z" fill-rule="nonzero"/><path d="m3.6 24.5c-.3-.2-.6-.3-1-.2h-.1l.1.6h.1c.2 0 .4 0 .5.1.3.1.4.3.5.6s0 .6-.2.8-.5.4-.9.4c-.5.1-.8.1-1.1-.1-.2-.1-.4-.4-.5-.7 0-.2 0-.4.1-.6s.2-.3.4-.4h.1l-.1-.6h-.1c-.3.1-.5.3-.7.6s-.3.7-.2 1.1c.1.5.4.9.8 1.1.3.1.6.2.9.2h.5c.7-.1 1.1-.4 1.4-.8.2-.3.3-.7.2-1.1-.2-.5-.4-.8-.7-1z"/><path d="m3.8 22.8h-1.5v-.9c0-.2 0-.3.1-.4s.2-.2.4-.2h.6.3.1v-.7h-.2s-.1.1-.2.1-.1 0-.3 0h-.5c-.2 0-.4 0-.5.1-.1 0-.1.1-.2.2-.1-.1-.2-.2-.3-.3s-.3-.1-.5-.1c-.4 0-.7.2-.9.5-.1.2-.1.4-.1.7v1.6l3.6.1zm-3-.1v-1c0-.1 0-.3.1-.3.1-.1.2-.2.4-.2.2 0 .3.1.4.2s.1.3.1.5v1z" fill-rule="nonzero"/><path d="m3.5 19.1-1-.2.4-1.8-.5-.1-.4 1.8-.9-.2.4-1.9-.5-.2-.6 2.6 3.5.7.6-2.6-.6-.1z"/><path d="m4.4 15.8-1-.3.7-1.8-.5-.2-.7 1.8-.8-.4.8-1.9-.6-.2-1 2.5 3.4 1.3 1-2.5-.6-.2z"/><path d="m7.3 11s-.1 0-.2 0-.1-.1-.2-.1l-.4-.2c-.2-.1-.3-.2-.5-.1-.1 0-.2 0-.3.1 0-.1 0-.2-.1-.4s-.2-.3-.4-.4c-.4-.2-.7-.2-1 0-.2.1-.3.3-.5.5l-.9 1.4 3 1.9.3-.5-1.1-.9.5-.8c.1-.1.2-.2.2-.3.1-.1.3-.1.4 0l.5.3c.1.1.2.1.3.1h.1l.4-.6zm-2.2.1-.5.9-.8-.5.5-.9c.1-.1.2-.2.2-.2.1-.1.3-.1.5 0s.3.2.3.3-.1.3-.2.4z" fill-rule="nonzero"/><path d="m15.5 3.2c-.2 0-.4 0-.6 0l-.5.1c-.3 0-.5.1-.6.1s-.2-.1-.3-.2c0-.1 0-.2 0-.4.1-.1.2-.2.4-.3.3-.1.5-.1.7 0 .1.1.2.2.3.3v.1l.5-.2v-.1c-.2-.4-.4-.6-.7-.7s-.6 0-1 .1c-.4.2-.6.4-.7.6-.1.3-.1.6 0 .9s.3.5.6.5h.7l.5-.1h.5c.1 0 .2.1.2.3.1.2 0 .4-.2.5-.1.1-.2.2-.4.2-.3.1-.6.1-.8 0-.1-.1-.2-.2-.3-.4v-.1l-.5.2v.1c.1.4.4.6.7.7.1 0 .3.1.4.1.2 0 .4 0 .7-.1s.6-.3.8-.6.2-.6.1-1c0-.3-.2-.5-.5-.6z"/><path d="m17.4.8-.6 3.8.6-.1.2-1.1 1.2-.3.6.9.7-.1-2-3.2zm1.1 1.9-.8.2.2-1.2z" fill-rule="nonzero"/><path d="m22.6 1.9c.1 0 .1-.1.2-.1.1-.2.2-.4.2-.6s-.1-.4-.2-.5c-.2-.3-.5-.4-.9-.4h-1.6l.1 3.6h1.5c.5 0 .8-.2 1-.5.1-.2.2-.4.2-.7s-.1-.5-.3-.7c0 0-.1 0-.2-.1zm-.9.4c.2 0 .3 0 .4.1.2.1.3.2.3.4 0 .1 0 .2-.1.3s-.3.2-.5.2h-.9v-1zm.4-.6c-.1.1-.2.1-.4.1h-.8v-.9h.8.4c.2.1.2.2.2.4s-.1.3-.2.4z" fill-rule="nonzero"/><path d="m23.7 3.9 2.6.4.1-.6-2-.3.1-1 1.9.3.1-.5-1.9-.3.1-.9 2 .3.1-.6-2.6-.3z"/><path d="m29.7 1.6-1.5-.5-1.2 3.3.6.2.5-1.4.9.3c.2.1.3.1.3.2.1.1.1.2.1.4l-.2.5c0 .1-.1.2-.1.3v.1l.7.2.1-.2s-.1-.1 0-.2c0-.1 0-.1.1-.3l.1-.4c.1-.2.1-.4 0-.5 0-.1-.1-.2-.1-.2.1 0 .2-.1.3-.2s.2-.3.3-.5c.1-.4.1-.7-.2-1-.3.1-.5 0-.7-.1zm-.2.5c.1 0 .2.1.3.2s.1.3.1.5c-.1.2-.2.3-.3.3s-.3 0-.5 0l-.9-.3.3-.9z" fill-rule="nonzero"/><path d="m39.6 12.8-.2-.5h-.1c-.2.1-.4.1-.5.1-.3 0-.5-.1-.7-.4s-.2-.6-.1-.8c.1-.3.3-.5.6-.7.4-.3.7-.4 1-.3.3 0 .5.2.7.4.1.2.2.4.2.6s-.1.3-.3.5l.3.5.1-.1c.2-.2.4-.5.5-.8s0-.7-.3-1.1-.7-.7-1.1-.7-.9.1-1.3.4c-.6.4-.9.8-1 1.3-.1.4 0 .7.2 1.1.3.4.6.6 1 .7h.3c.2 0 .4 0 .7-.2z"/><path d="m40 16.7c0-.1 0-.1.1-.2 0 0 .1-.1.2-.1l.4-.2c.2-.1.3-.2.4-.3 0-.1.1-.2.1-.2.1.1.2.1.3.1.2 0 .4 0 .6-.1.4-.2.6-.4.6-.8 0-.2 0-.4-.1-.7l-.6-1.5-3.3 1.3.2.6 1.4-.5.4.9c.1.2.1.3.1.4s-.1.2-.3.3l-.5.3c-.1.1-.2.1-.3.1 0 0-.1.1-.1.1l.3.6zm1.8-3.1.4.9c.1.1.1.2.1.3 0 .2-.1.3-.3.4s-.3.1-.4 0-.2-.2-.3-.4l-.4-.9z" fill-rule="nonzero"/><path d="m41.1 20-.4-2.1.9-.2.4 1.9.5-.1-.3-1.9.8-.1.4 2 .6-.2-.5-2.5-3.5.6.5 2.7z"/><g fill-rule="nonzero"><path d="m40.6 21 1 .4v1.2l-1 .4v.7l3.6-1.4v-.6l-3.6-1.3zm1.5.5 1.2.4-1.2.4z"/><path d="m40.4 24.6 1.4.2-.2.9c0 .2-.1.3-.1.4-.1.1-.2.2-.4.1l-.6-.1c-.1 0-.2 0-.3 0s-.1 0-.1 0l-.1.8h.2s.1-.1.2-.1h.3l.5.1h.5c.1 0 .1-.1.2-.2.1.1.1.2.2.3s.3.2.5.2h.2c.3 0 .6-.1.7-.4.1-.2.2-.4.2-.6l.3-1.6-3.5-.6zm3 .5-.2 1c0 .1-.1.2-.1.3-.1.1-.2.2-.5.1-.2 0-.3-.1-.4-.2s-.1-.3 0-.5l.2-.9z"/></g></g></g></g></svg>